<?xml version="1.0" encoding="utf-8" standalone="no"?>
<!DOCTYPE svg PUBLIC "-//W3C//DTD SVG 1.1//EN"
  "http://www.w3.org/Graphics/SVG/1.1/DTD/svg11.dtd">
<svg xmlns:xlink="http://www.w3.org/1999/xlink" width="1284.696875pt" height="493.346795pt" viewBox="0 0 1284.696875 493.346795" xmlns="http://www.w3.org/2000/svg" version="1.1">
 <metadata>
  <rdf:RDF xmlns:dc="http://purl.org/dc/elements/1.1/" xmlns:cc="http://creativecommons.org/ns#" xmlns:rdf="http://www.w3.org/1999/02/22-rdf-syntax-ns#">
   <cc:Work>
    <dc:type rdf:resource="http://purl.org/dc/dcmitype/StillImage"/>
    <dc:date>2026-04-04T21:55:35.985360</dc:date>
    <dc:format>image/svg+xml</dc:format>
    <dc:creator>
     <cc:Agent>
      <dc:title>Matplotlib v3.9.2, https://matplotlib.org/</dc:title>
     </cc:Agent>
    </dc:creator>
   </cc:Work>
  </rdf:RDF>
 </metadata>
 <defs>
  <style type="text/css">*{stroke-linejoin: round; stroke-linecap: butt}</style>
 </defs>
 <g id="figure_1">
  <g id="patch_1">
   <path d="M 0 493.346795 
L 1284.696875 493.346795 
L 1284.696875 0 
L 0 0 
z
" style="fill: #ffffff"/>
  </g>
  <g id="axes_1">
   <g id="patch_2">
    <path d="M 48.216875 392.517712 
L 633.20953 392.517712 
L 633.20953 24.179062 
L 48.216875 24.179062 
z
" style="fill: #f9f9f9"/>
   </g>
   <g id="matplotlib.axis_1">
    <g id="xtick_1">
     <g id="line2d_1">
      <path d="M 91.780158 392.517712 
L 91.780158 24.179062 
" clip-path="url(#p1c086cfe16)" style="fill: none; stroke-dasharray: 2.59,1.12; stroke-dashoffset: 0; stroke: #eeeeee; stroke-width: 0.7"/>
     </g>
     <g id="text_1">
      <!-- LinearRegression -->
      <g style="fill: #262626" transform="translate(29.659722 468.040494) rotate(-45) scale(0.1 -0.1)">
       <defs>
        <path id="DejaVuSans-4c" d="M 628 4666 
L 1259 4666 
L 1259 531 
L 3531 531 
L 3531 0 
L 628 0 
L 628 4666 
z
" transform="scale(0.015625)"/>
        <path id="DejaVuSans-69" d="M 603 3500 
L 1178 3500 
L 1178 0 
L 603 0 
L 603 3500 
z
M 603 4863 
L 1178 4863 
L 1178 4134 
L 603 4134 
L 603 4863 
z
" transform="scale(0.015625)"/>
        <path id="DejaVuSans-6e" d="M 3513 2113 
L 3513 0 
L 2938 0 
L 2938 2094 
Q 2938 2591 2744 2837 
Q 2550 3084 2163 3084 
Q 1697 3084 1428 2787 
Q 1159 2491 1159 1978 
L 1159 0 
L 581 0 
L 581 3500 
L 1159 3500 
L 1159 2956 
Q 1366 3272 1645 3428 
Q 1925 3584 2291 3584 
Q 2894 3584 3203 3211 
Q 3513 2838 3513 2113 
z
" transform="scale(0.015625)"/>
        <path id="DejaVuSans-65" d="M 3597 1894 
L 3597 1613 
L 953 1613 
Q 991 1019 1311 708 
Q 1631 397 2203 397 
Q 2534 397 2845 478 
Q 3156 559 3463 722 
L 3463 178 
Q 3153 47 2828 -22 
Q 2503 -91 2169 -91 
Q 1331 -91 842 396 
Q 353 884 353 1716 
Q 353 2575 817 3079 
Q 1281 3584 2069 3584 
Q 2775 3584 3186 3129 
Q 3597 2675 3597 1894 
z
M 3022 2063 
Q 3016 2534 2758 2815 
Q 2500 3097 2075 3097 
Q 1594 3097 1305 2825 
Q 1016 2553 972 2059 
L 3022 2063 
z
" transform="scale(0.015625)"/>
        <path id="DejaVuSans-61" d="M 2194 1759 
Q 1497 1759 1228 1600 
Q 959 1441 959 1056 
Q 959 750 1161 570 
Q 1363 391 1709 391 
Q 2188 391 2477 730 
Q 2766 1069 2766 1631 
L 2766 1759 
L 2194 1759 
z
M 3341 1997 
L 3341 0 
L 2766 0 
L 2766 531 
Q 2569 213 2275 61 
Q 1981 -91 1556 -91 
Q 1019 -91 701 211 
Q 384 513 384 1019 
Q 384 1609 779 1909 
Q 1175 2209 1959 2209 
L 2766 2209 
L 2766 2266 
Q 2766 2663 2505 2880 
Q 2244 3097 1772 3097 
Q 1472 3097 1187 3025 
Q 903 2953 641 2809 
L 641 3341 
Q 956 3463 1253 3523 
Q 1550 3584 1831 3584 
Q 2591 3584 2966 3190 
Q 3341 2797 3341 1997 
z
" transform="scale(0.015625)"/>
        <path id="DejaVuSans-72" d="M 2631 2963 
Q 2534 3019 2420 3045 
Q 2306 3072 2169 3072 
Q 1681 3072 1420 2755 
Q 1159 2438 1159 1844 
L 1159 0 
L 581 0 
L 581 3500 
L 1159 3500 
L 1159 2956 
Q 1341 3275 1631 3429 
Q 1922 3584 2338 3584 
Q 2397 3584 2469 3576 
Q 2541 3569 2628 3553 
L 2631 2963 
z
" transform="scale(0.015625)"/>
        <path id="DejaVuSans-52" d="M 2841 2188 
Q 3044 2119 3236 1894 
Q 3428 1669 3622 1275 
L 4263 0 
L 3584 0 
L 2988 1197 
Q 2756 1666 2539 1819 
Q 2322 1972 1947 1972 
L 1259 1972 
L 1259 0 
L 628 0 
L 628 4666 
L 2053 4666 
Q 2853 4666 3247 4331 
Q 3641 3997 3641 3322 
Q 3641 2881 3436 2590 
Q 3231 2300 2841 2188 
z
M 1259 4147 
L 1259 2491 
L 2053 2491 
Q 2509 2491 2742 2702 
Q 2975 2913 2975 3322 
Q 2975 3731 2742 3939 
Q 2509 4147 2053 4147 
L 1259 4147 
z
" transform="scale(0.015625)"/>
        <path id="DejaVuSans-67" d="M 2906 1791 
Q 2906 2416 2648 2759 
Q 2391 3103 1925 3103 
Q 1463 3103 1205 2759 
Q 947 2416 947 1791 
Q 947 1169 1205 825 
Q 1463 481 1925 481 
Q 2391 481 2648 825 
Q 2906 1169 2906 1791 
z
M 3481 434 
Q 3481 -459 3084 -895 
Q 2688 -1331 1869 -1331 
Q 1566 -1331 1297 -1286 
Q 1028 -1241 775 -1147 
L 775 -588 
Q 1028 -725 1275 -790 
Q 1522 -856 1778 -856 
Q 2344 -856 2625 -561 
Q 2906 -266 2906 331 
L 2906 616 
Q 2728 306 2450 153 
Q 2172 0 1784 0 
Q 1141 0 747 490 
Q 353 981 353 1791 
Q 353 2603 747 3093 
Q 1141 3584 1784 3584 
Q 2172 3584 2450 3431 
Q 2728 3278 2906 2969 
L 2906 3500 
L 3481 3500 
L 3481 434 
z
" transform="scale(0.015625)"/>
        <path id="DejaVuSans-73" d="M 2834 3397 
L 2834 2853 
Q 2591 2978 2328 3040 
Q 2066 3103 1784 3103 
Q 1356 3103 1142 2972 
Q 928 2841 928 2578 
Q 928 2378 1081 2264 
Q 1234 2150 1697 2047 
L 1894 2003 
Q 2506 1872 2764 1633 
Q 3022 1394 3022 966 
Q 3022 478 2636 193 
Q 2250 -91 1575 -91 
Q 1294 -91 989 -36 
Q 684 19 347 128 
L 347 722 
Q 666 556 975 473 
Q 1284 391 1588 391 
Q 1994 391 2212 530 
Q 2431 669 2431 922 
Q 2431 1156 2273 1281 
Q 2116 1406 1581 1522 
L 1381 1569 
Q 847 1681 609 1914 
Q 372 2147 372 2553 
Q 372 3047 722 3315 
Q 1072 3584 1716 3584 
Q 2034 3584 2315 3537 
Q 2597 3491 2834 3397 
z
" transform="scale(0.015625)"/>
        <path id="DejaVuSans-6f" d="M 1959 3097 
Q 1497 3097 1228 2736 
Q 959 2375 959 1747 
Q 959 1119 1226 758 
Q 1494 397 1959 397 
Q 2419 397 2687 759 
Q 2956 1122 2956 1747 
Q 2956 2369 2687 2733 
Q 2419 3097 1959 3097 
z
M 1959 3584 
Q 2709 3584 3137 3096 
Q 3566 2609 3566 1747 
Q 3566 888 3137 398 
Q 2709 -91 1959 -91 
Q 1206 -91 779 398 
Q 353 888 353 1747 
Q 353 2609 779 3096 
Q 1206 3584 1959 3584 
z
" transform="scale(0.015625)"/>
       </defs>
       <use xlink:href="#DejaVuSans-4c"/>
       <use xlink:href="#DejaVuSans-69" x="55.712891"/>
       <use xlink:href="#DejaVuSans-6e" x="83.496094"/>
       <use xlink:href="#DejaVuSans-65" x="146.875"/>
       <use xlink:href="#DejaVuSans-61" x="208.398438"/>
       <use xlink:href="#DejaVuSans-72" x="269.677734"/>
       <use xlink:href="#DejaVuSans-52" x="310.791016"/>
       <use xlink:href="#DejaVuSans-65" x="375.773438"/>
       <use xlink:href="#DejaVuSans-67" x="437.296875"/>
       <use xlink:href="#DejaVuSans-72" x="500.773438"/>
       <use xlink:href="#DejaVuSans-65" x="539.636719"/>
       <use xlink:href="#DejaVuSans-73" x="601.160156"/>
       <use xlink:href="#DejaVuSans-73" x="653.259766"/>
       <use xlink:href="#DejaVuSans-69" x="705.359375"/>
       <use xlink:href="#DejaVuSans-6f" x="733.142578"/>
       <use xlink:href="#DejaVuSans-6e" x="794.324219"/>
      </g>
     </g>
    </g>
    <g id="xtick_2">
     <g id="line2d_2">
      <path d="M 137.040711 392.517712 
L 137.040711 24.179062 
" clip-path="url(#p1c086cfe16)" style="fill: none; stroke-dasharray: 2.59,1.12; stroke-dashoffset: 0; stroke: #eeeeee; stroke-width: 0.7"/>
     </g>
     <g id="text_2">
      <!-- Ridge -->
      <g style="fill: #262626" transform="translate(115.363469 427.5973) rotate(-45) scale(0.1 -0.1)">
       <defs>
        <path id="DejaVuSans-64" d="M 2906 2969 
L 2906 4863 
L 3481 4863 
L 3481 0 
L 2906 0 
L 2906 525 
Q 2725 213 2448 61 
Q 2172 -91 1784 -91 
Q 1150 -91 751 415 
Q 353 922 353 1747 
Q 353 2572 751 3078 
Q 1150 3584 1784 3584 
Q 2172 3584 2448 3432 
Q 2725 3281 2906 2969 
z
M 947 1747 
Q 947 1113 1208 752 
Q 1469 391 1925 391 
Q 2381 391 2643 752 
Q 2906 1113 2906 1747 
Q 2906 2381 2643 2742 
Q 2381 3103 1925 3103 
Q 1469 3103 1208 2742 
Q 947 2381 947 1747 
z
" transform="scale(0.015625)"/>
       </defs>
       <use xlink:href="#DejaVuSans-52"/>
       <use xlink:href="#DejaVuSans-69" x="69.482422"/>
       <use xlink:href="#DejaVuSans-64" x="97.265625"/>
       <use xlink:href="#DejaVuSans-67" x="160.742188"/>
       <use xlink:href="#DejaVuSans-65" x="224.21875"/>
      </g>
     </g>
    </g>
    <g id="xtick_3">
     <g id="line2d_3">
      <path d="M 182.301265 392.517712 
L 182.301265 24.179062 
" clip-path="url(#p1c086cfe16)" style="fill: none; stroke-dasharray: 2.59,1.12; stroke-dashoffset: 0; stroke: #eeeeee; stroke-width: 0.7"/>
     </g>
     <g id="text_3">
      <!-- Lasso -->
      <g style="fill: #262626" transform="translate(160.863776 427.357547) rotate(-45) scale(0.1 -0.1)">
       <use xlink:href="#DejaVuSans-4c"/>
       <use xlink:href="#DejaVuSans-61" x="55.712891"/>
       <use xlink:href="#DejaVuSans-73" x="116.992188"/>
       <use xlink:href="#DejaVuSans-73" x="169.091797"/>
       <use xlink:href="#DejaVuSans-6f" x="221.191406"/>
      </g>
     </g>
    </g>
    <g id="xtick_4">
     <g id="line2d_4">
      <path d="M 227.561819 392.517712 
L 227.561819 24.179062 
" clip-path="url(#p1c086cfe16)" style="fill: none; stroke-dasharray: 2.59,1.12; stroke-dashoffset: 0; stroke: #eeeeee; stroke-width: 0.7"/>
     </g>
     <g id="text_4">
      <!-- ElasticNet -->
      <g style="fill: #262626" transform="translate(190.604441 442.877436) rotate(-45) scale(0.1 -0.1)">
       <defs>
        <path id="DejaVuSans-45" d="M 628 4666 
L 3578 4666 
L 3578 4134 
L 1259 4134 
L 1259 2753 
L 3481 2753 
L 3481 2222 
L 1259 2222 
L 1259 531 
L 3634 531 
L 3634 0 
L 628 0 
L 628 4666 
z
" transform="scale(0.015625)"/>
        <path id="DejaVuSans-6c" d="M 603 4863 
L 1178 4863 
L 1178 0 
L 603 0 
L 603 4863 
z
" transform="scale(0.015625)"/>
        <path id="DejaVuSans-74" d="M 1172 4494 
L 1172 3500 
L 2356 3500 
L 2356 3053 
L 1172 3053 
L 1172 1153 
Q 1172 725 1289 603 
Q 1406 481 1766 481 
L 2356 481 
L 2356 0 
L 1766 0 
Q 1100 0 847 248 
Q 594 497 594 1153 
L 594 3053 
L 172 3053 
L 172 3500 
L 594 3500 
L 594 4494 
L 1172 4494 
z
" transform="scale(0.015625)"/>
        <path id="DejaVuSans-63" d="M 3122 3366 
L 3122 2828 
Q 2878 2963 2633 3030 
Q 2388 3097 2138 3097 
Q 1578 3097 1268 2742 
Q 959 2388 959 1747 
Q 959 1106 1268 751 
Q 1578 397 2138 397 
Q 2388 397 2633 464 
Q 2878 531 3122 666 
L 3122 134 
Q 2881 22 2623 -34 
Q 2366 -91 2075 -91 
Q 1284 -91 818 406 
Q 353 903 353 1747 
Q 353 2603 823 3093 
Q 1294 3584 2113 3584 
Q 2378 3584 2631 3529 
Q 2884 3475 3122 3366 
z
" transform="scale(0.015625)"/>
        <path id="DejaVuSans-4e" d="M 628 4666 
L 1478 4666 
L 3547 763 
L 3547 4666 
L 4159 4666 
L 4159 0 
L 3309 0 
L 1241 3903 
L 1241 0 
L 628 0 
L 628 4666 
z
" transform="scale(0.015625)"/>
       </defs>
       <use xlink:href="#DejaVuSans-45"/>
       <use xlink:href="#DejaVuSans-6c" x="63.183594"/>
       <use xlink:href="#DejaVuSans-61" x="90.966797"/>
       <use xlink:href="#DejaVuSans-73" x="152.246094"/>
       <use xlink:href="#DejaVuSans-74" x="204.345703"/>
       <use xlink:href="#DejaVuSans-69" x="243.554688"/>
       <use xlink:href="#DejaVuSans-63" x="271.337891"/>
       <use xlink:href="#DejaVuSans-4e" x="326.318359"/>
       <use xlink:href="#DejaVuSans-65" x="401.123047"/>
       <use xlink:href="#DejaVuSans-74" x="462.646484"/>
      </g>
     </g>
    </g>
    <g id="xtick_5">
     <g id="line2d_5">
      <path d="M 272.822372 392.517712 
L 272.822372 24.179062 
" clip-path="url(#p1c086cfe16)" style="fill: none; stroke-dasharray: 2.59,1.12; stroke-dashoffset: 0; stroke: #eeeeee; stroke-width: 0.7"/>
     </g>
     <g id="text_5">
      <!-- DecisionTree -->
      <g style="fill: #262626" transform="translate(226.522346 452.220084) rotate(-45) scale(0.1 -0.1)">
       <defs>
        <path id="DejaVuSans-44" d="M 1259 4147 
L 1259 519 
L 2022 519 
Q 2988 519 3436 956 
Q 3884 1394 3884 2338 
Q 3884 3275 3436 3711 
Q 2988 4147 2022 4147 
L 1259 4147 
z
M 628 4666 
L 1925 4666 
Q 3281 4666 3915 4102 
Q 4550 3538 4550 2338 
Q 4550 1131 3912 565 
Q 3275 0 1925 0 
L 628 0 
L 628 4666 
z
" transform="scale(0.015625)"/>
        <path id="DejaVuSans-54" d="M -19 4666 
L 3928 4666 
L 3928 4134 
L 2272 4134 
L 2272 0 
L 1638 0 
L 1638 4134 
L -19 4134 
L -19 4666 
z
" transform="scale(0.015625)"/>
       </defs>
       <use xlink:href="#DejaVuSans-44"/>
       <use xlink:href="#DejaVuSans-65" x="77.001953"/>
       <use xlink:href="#DejaVuSans-63" x="138.525391"/>
       <use xlink:href="#DejaVuSans-69" x="193.505859"/>
       <use xlink:href="#DejaVuSans-73" x="221.289062"/>
       <use xlink:href="#DejaVuSans-69" x="273.388672"/>
       <use xlink:href="#DejaVuSans-6f" x="301.171875"/>
       <use xlink:href="#DejaVuSans-6e" x="362.353516"/>
       <use xlink:href="#DejaVuSans-54" x="425.732422"/>
       <use xlink:href="#DejaVuSans-72" x="472.066406"/>
       <use xlink:href="#DejaVuSans-65" x="510.929688"/>
       <use xlink:href="#DejaVuSans-65" x="572.453125"/>
      </g>
     </g>
    </g>
    <g id="xtick_6">
     <g id="line2d_6">
      <path d="M 318.082926 392.517712 
L 318.082926 24.179062 
" clip-path="url(#p1c086cfe16)" style="fill: none; stroke-dasharray: 2.59,1.12; stroke-dashoffset: 0; stroke: #eeeeee; stroke-width: 0.7"/>
     </g>
     <g id="text_6">
      <!-- RandomForest -->
      <g style="fill: #262626" transform="translate(265.648748 458.354236) rotate(-45) scale(0.1 -0.1)">
       <defs>
        <path id="DejaVuSans-6d" d="M 3328 2828 
Q 3544 3216 3844 3400 
Q 4144 3584 4550 3584 
Q 5097 3584 5394 3201 
Q 5691 2819 5691 2113 
L 5691 0 
L 5113 0 
L 5113 2094 
Q 5113 2597 4934 2840 
Q 4756 3084 4391 3084 
Q 3944 3084 3684 2787 
Q 3425 2491 3425 1978 
L 3425 0 
L 2847 0 
L 2847 2094 
Q 2847 2600 2669 2842 
Q 2491 3084 2119 3084 
Q 1678 3084 1418 2786 
Q 1159 2488 1159 1978 
L 1159 0 
L 581 0 
L 581 3500 
L 1159 3500 
L 1159 2956 
Q 1356 3278 1631 3431 
Q 1906 3584 2284 3584 
Q 2666 3584 2933 3390 
Q 3200 3197 3328 2828 
z
" transform="scale(0.015625)"/>
        <path id="DejaVuSans-46" d="M 628 4666 
L 3309 4666 
L 3309 4134 
L 1259 4134 
L 1259 2759 
L 3109 2759 
L 3109 2228 
L 1259 2228 
L 1259 0 
L 628 0 
L 628 4666 
z
" transform="scale(0.015625)"/>
       </defs>
       <use xlink:href="#DejaVuSans-52"/>
       <use xlink:href="#DejaVuSans-61" x="67.232422"/>
       <use xlink:href="#DejaVuSans-6e" x="128.511719"/>
       <use xlink:href="#DejaVuSans-64" x="191.890625"/>
       <use xlink:href="#DejaVuSans-6f" x="255.367188"/>
       <use xlink:href="#DejaVuSans-6d" x="316.548828"/>
       <use xlink:href="#DejaVuSans-46" x="413.960938"/>
       <use xlink:href="#DejaVuSans-6f" x="467.855469"/>
       <use xlink:href="#DejaVuSans-72" x="529.037109"/>
       <use xlink:href="#DejaVuSans-65" x="567.900391"/>
       <use xlink:href="#DejaVuSans-73" x="629.423828"/>
       <use xlink:href="#DejaVuSans-74" x="681.523438"/>
      </g>
     </g>
    </g>
    <g id="xtick_7">
     <g id="line2d_7">
      <path d="M 363.343479 392.517712 
L 363.343479 24.179062 
" clip-path="url(#p1c086cfe16)" style="fill: none; stroke-dasharray: 2.59,1.12; stroke-dashoffset: 0; stroke: #eeeeee; stroke-width: 0.7"/>
     </g>
     <g id="text_7">
      <!-- GradientBoosting -->
      <g style="fill: #262626" transform="translate(300.201054 469.062484) rotate(-45) scale(0.1 -0.1)">
       <defs>
        <path id="DejaVuSans-47" d="M 3809 666 
L 3809 1919 
L 2778 1919 
L 2778 2438 
L 4434 2438 
L 4434 434 
Q 4069 175 3628 42 
Q 3188 -91 2688 -91 
Q 1594 -91 976 548 
Q 359 1188 359 2328 
Q 359 3472 976 4111 
Q 1594 4750 2688 4750 
Q 3144 4750 3555 4637 
Q 3966 4525 4313 4306 
L 4313 3634 
Q 3963 3931 3569 4081 
Q 3175 4231 2741 4231 
Q 1884 4231 1454 3753 
Q 1025 3275 1025 2328 
Q 1025 1384 1454 906 
Q 1884 428 2741 428 
Q 3075 428 3337 486 
Q 3600 544 3809 666 
z
" transform="scale(0.015625)"/>
        <path id="DejaVuSans-42" d="M 1259 2228 
L 1259 519 
L 2272 519 
Q 2781 519 3026 730 
Q 3272 941 3272 1375 
Q 3272 1813 3026 2020 
Q 2781 2228 2272 2228 
L 1259 2228 
z
M 1259 4147 
L 1259 2741 
L 2194 2741 
Q 2656 2741 2882 2914 
Q 3109 3088 3109 3444 
Q 3109 3797 2882 3972 
Q 2656 4147 2194 4147 
L 1259 4147 
z
M 628 4666 
L 2241 4666 
Q 2963 4666 3353 4366 
Q 3744 4066 3744 3513 
Q 3744 3084 3544 2831 
Q 3344 2578 2956 2516 
Q 3422 2416 3680 2098 
Q 3938 1781 3938 1306 
Q 3938 681 3513 340 
Q 3088 0 2303 0 
L 628 0 
L 628 4666 
z
" transform="scale(0.015625)"/>
       </defs>
       <use xlink:href="#DejaVuSans-47"/>
       <use xlink:href="#DejaVuSans-72" x="77.490234"/>
       <use xlink:href="#DejaVuSans-61" x="118.603516"/>
       <use xlink:href="#DejaVuSans-64" x="179.882812"/>
       <use xlink:href="#DejaVuSans-69" x="243.359375"/>
       <use xlink:href="#DejaVuSans-65" x="271.142578"/>
       <use xlink:href="#DejaVuSans-6e" x="332.666016"/>
       <use xlink:href="#DejaVuSans-74" x="396.044922"/>
       <use xlink:href="#DejaVuSans-42" x="435.253906"/>
       <use xlink:href="#DejaVuSans-6f" x="503.857422"/>
       <use xlink:href="#DejaVuSans-6f" x="565.039062"/>
       <use xlink:href="#DejaVuSans-73" x="626.220703"/>
       <use xlink:href="#DejaVuSans-74" x="678.320312"/>
       <use xlink:href="#DejaVuSans-69" x="717.529297"/>
       <use xlink:href="#DejaVuSans-6e" x="745.3125"/>
       <use xlink:href="#DejaVuSans-67" x="808.691406"/>
      </g>
     </g>
    </g>
    <g id="xtick_8">
     <g id="line2d_8">
      <path d="M 408.604033 392.517712 
L 408.604033 24.179062 
" clip-path="url(#p1c086cfe16)" style="fill: none; stroke-dasharray: 2.59,1.12; stroke-dashoffset: 0; stroke: #eeeeee; stroke-width: 0.7"/>
     </g>
     <g id="text_8">
      <!-- XGBoost -->
      <g style="fill: #262626" transform="translate(376.850519 437.673572) rotate(-45) scale(0.1 -0.1)">
       <defs>
        <path id="DejaVuSans-58" d="M 403 4666 
L 1081 4666 
L 2241 2931 
L 3406 4666 
L 4084 4666 
L 2584 2425 
L 4184 0 
L 3506 0 
L 2194 1984 
L 872 0 
L 191 0 
L 1856 2491 
L 403 4666 
z
" transform="scale(0.015625)"/>
       </defs>
       <use xlink:href="#DejaVuSans-58"/>
       <use xlink:href="#DejaVuSans-47" x="68.505859"/>
       <use xlink:href="#DejaVuSans-42" x="145.996094"/>
       <use xlink:href="#DejaVuSans-6f" x="214.599609"/>
       <use xlink:href="#DejaVuSans-6f" x="275.78125"/>
       <use xlink:href="#DejaVuSans-73" x="336.962891"/>
       <use xlink:href="#DejaVuSans-74" x="389.0625"/>
      </g>
     </g>
    </g>
    <g id="xtick_9">
     <g id="line2d_9">
      <path d="M 453.864587 392.517712 
L 453.864587 24.179062 
" clip-path="url(#p1c086cfe16)" style="fill: none; stroke-dasharray: 2.59,1.12; stroke-dashoffset: 0; stroke: #eeeeee; stroke-width: 0.7"/>
     </g>
     <g id="text_9">
      <!-- LightGBM -->
      <g style="fill: #262626" transform="translate(418.315898 441.468747) rotate(-45) scale(0.1 -0.1)">
       <defs>
        <path id="DejaVuSans-68" d="M 3513 2113 
L 3513 0 
L 2938 0 
L 2938 2094 
Q 2938 2591 2744 2837 
Q 2550 3084 2163 3084 
Q 1697 3084 1428 2787 
Q 1159 2491 1159 1978 
L 1159 0 
L 581 0 
L 581 4863 
L 1159 4863 
L 1159 2956 
Q 1366 3272 1645 3428 
Q 1925 3584 2291 3584 
Q 2894 3584 3203 3211 
Q 3513 2838 3513 2113 
z
" transform="scale(0.015625)"/>
        <path id="DejaVuSans-4d" d="M 628 4666 
L 1569 4666 
L 2759 1491 
L 3956 4666 
L 4897 4666 
L 4897 0 
L 4281 0 
L 4281 4097 
L 3078 897 
L 2444 897 
L 1241 4097 
L 1241 0 
L 628 0 
L 628 4666 
z
" transform="scale(0.015625)"/>
       </defs>
       <use xlink:href="#DejaVuSans-4c"/>
       <use xlink:href="#DejaVuSans-69" x="55.712891"/>
       <use xlink:href="#DejaVuSans-67" x="83.496094"/>
       <use xlink:href="#DejaVuSans-68" x="146.972656"/>
       <use xlink:href="#DejaVuSans-74" x="210.351562"/>
       <use xlink:href="#DejaVuSans-47" x="249.560547"/>
       <use xlink:href="#DejaVuSans-42" x="327.050781"/>
       <use xlink:href="#DejaVuSans-4d" x="395.654297"/>
      </g>
     </g>
    </g>
    <g id="xtick_10">
     <g id="line2d_10">
      <path d="M 499.12514 392.517712 
L 499.12514 24.179062 
" clip-path="url(#p1c086cfe16)" style="fill: none; stroke-dasharray: 2.59,1.12; stroke-dashoffset: 0; stroke: #eeeeee; stroke-width: 0.7"/>
     </g>
     <g id="text_10">
      <!-- AdaBoost -->
      <g style="fill: #262626" transform="translate(464.15871 440.886488) rotate(-45) scale(0.1 -0.1)">
       <defs>
        <path id="DejaVuSans-41" d="M 2188 4044 
L 1331 1722 
L 3047 1722 
L 2188 4044 
z
M 1831 4666 
L 2547 4666 
L 4325 0 
L 3669 0 
L 3244 1197 
L 1141 1197 
L 716 0 
L 50 0 
L 1831 4666 
z
" transform="scale(0.015625)"/>
       </defs>
       <use xlink:href="#DejaVuSans-41"/>
       <use xlink:href="#DejaVuSans-64" x="66.658203"/>
       <use xlink:href="#DejaVuSans-61" x="130.134766"/>
       <use xlink:href="#DejaVuSans-42" x="191.414062"/>
       <use xlink:href="#DejaVuSans-6f" x="260.017578"/>
       <use xlink:href="#DejaVuSans-6f" x="321.199219"/>
       <use xlink:href="#DejaVuSans-73" x="382.380859"/>
       <use xlink:href="#DejaVuSans-74" x="434.480469"/>
      </g>
     </g>
    </g>
    <g id="xtick_11">
     <g id="line2d_11">
      <path d="M 544.385694 392.517712 
L 544.385694 24.179062 
" clip-path="url(#p1c086cfe16)" style="fill: none; stroke-dasharray: 2.59,1.12; stroke-dashoffset: 0; stroke: #eeeeee; stroke-width: 0.7"/>
     </g>
     <g id="text_11">
      <!-- SVR -->
      <g style="fill: #262626" transform="translate(528.67577 421.629982) rotate(-45) scale(0.1 -0.1)">
       <defs>
        <path id="DejaVuSans-53" d="M 3425 4513 
L 3425 3897 
Q 3066 4069 2747 4153 
Q 2428 4238 2131 4238 
Q 1616 4238 1336 4038 
Q 1056 3838 1056 3469 
Q 1056 3159 1242 3001 
Q 1428 2844 1947 2747 
L 2328 2669 
Q 3034 2534 3370 2195 
Q 3706 1856 3706 1288 
Q 3706 609 3251 259 
Q 2797 -91 1919 -91 
Q 1588 -91 1214 -16 
Q 841 59 441 206 
L 441 856 
Q 825 641 1194 531 
Q 1563 422 1919 422 
Q 2459 422 2753 634 
Q 3047 847 3047 1241 
Q 3047 1584 2836 1778 
Q 2625 1972 2144 2069 
L 1759 2144 
Q 1053 2284 737 2584 
Q 422 2884 422 3419 
Q 422 4038 858 4394 
Q 1294 4750 2059 4750 
Q 2388 4750 2728 4690 
Q 3069 4631 3425 4513 
z
" transform="scale(0.015625)"/>
        <path id="DejaVuSans-56" d="M 1831 0 
L 50 4666 
L 709 4666 
L 2188 738 
L 3669 4666 
L 4325 4666 
L 2547 0 
L 1831 0 
z
" transform="scale(0.015625)"/>
       </defs>
       <use xlink:href="#DejaVuSans-53"/>
       <use xlink:href="#DejaVuSans-56" x="63.476562"/>
       <use xlink:href="#DejaVuSans-52" x="131.884766"/>
      </g>
     </g>
    </g>
    <g id="xtick_12">
     <g id="line2d_12">
      <path d="M 589.646247 392.517712 
L 589.646247 24.179062 
" clip-path="url(#p1c086cfe16)" style="fill: none; stroke-dasharray: 2.59,1.12; stroke-dashoffset: 0; stroke: #eeeeee; stroke-width: 0.7"/>
     </g>
     <g id="text_12">
      <!-- KNN -->
      <g style="fill: #262626" transform="translate(572.958527 422.607778) rotate(-45) scale(0.1 -0.1)">
       <defs>
        <path id="DejaVuSans-4b" d="M 628 4666 
L 1259 4666 
L 1259 2694 
L 3353 4666 
L 4166 4666 
L 1850 2491 
L 4331 0 
L 3500 0 
L 1259 2247 
L 1259 0 
L 628 0 
L 628 4666 
z
" transform="scale(0.015625)"/>
       </defs>
       <use xlink:href="#DejaVuSans-4b"/>
       <use xlink:href="#DejaVuSans-4e" x="65.576172"/>
       <use xlink:href="#DejaVuSans-4e" x="140.380859"/>
      </g>
     </g>
    </g>
    <g id="text_13">
     <!-- Modeller -->
     <g style="fill: #262626" transform="translate(311.113515 483.65117) scale(0.12 -0.12)">
      <defs>
       <path id="DejaVuSans-Bold-4d" d="M 588 4666 
L 2119 4666 
L 3181 2169 
L 4250 4666 
L 5778 4666 
L 5778 0 
L 4641 0 
L 4641 3413 
L 3566 897 
L 2803 897 
L 1728 3413 
L 1728 0 
L 588 0 
L 588 4666 
z
" transform="scale(0.015625)"/>
       <path id="DejaVuSans-Bold-6f" d="M 2203 2784 
Q 1831 2784 1636 2517 
Q 1441 2250 1441 1747 
Q 1441 1244 1636 976 
Q 1831 709 2203 709 
Q 2569 709 2762 976 
Q 2956 1244 2956 1747 
Q 2956 2250 2762 2517 
Q 2569 2784 2203 2784 
z
M 2203 3584 
Q 3106 3584 3614 3096 
Q 4122 2609 4122 1747 
Q 4122 884 3614 396 
Q 3106 -91 2203 -91 
Q 1297 -91 786 396 
Q 275 884 275 1747 
Q 275 2609 786 3096 
Q 1297 3584 2203 3584 
z
" transform="scale(0.015625)"/>
       <path id="DejaVuSans-Bold-64" d="M 2919 2988 
L 2919 4863 
L 4044 4863 
L 4044 0 
L 2919 0 
L 2919 506 
Q 2688 197 2409 53 
Q 2131 -91 1766 -91 
Q 1119 -91 703 423 
Q 288 938 288 1747 
Q 288 2556 703 3070 
Q 1119 3584 1766 3584 
Q 2128 3584 2408 3439 
Q 2688 3294 2919 2988 
z
M 2181 722 
Q 2541 722 2730 984 
Q 2919 1247 2919 1747 
Q 2919 2247 2730 2509 
Q 2541 2772 2181 2772 
Q 1825 2772 1636 2509 
Q 1447 2247 1447 1747 
Q 1447 1247 1636 984 
Q 1825 722 2181 722 
z
" transform="scale(0.015625)"/>
       <path id="DejaVuSans-Bold-65" d="M 4031 1759 
L 4031 1441 
L 1416 1441 
Q 1456 1047 1700 850 
Q 1944 653 2381 653 
Q 2734 653 3104 758 
Q 3475 863 3866 1075 
L 3866 213 
Q 3469 63 3072 -14 
Q 2675 -91 2278 -91 
Q 1328 -91 801 392 
Q 275 875 275 1747 
Q 275 2603 792 3093 
Q 1309 3584 2216 3584 
Q 3041 3584 3536 3087 
Q 4031 2591 4031 1759 
z
M 2881 2131 
Q 2881 2450 2695 2645 
Q 2509 2841 2209 2841 
Q 1884 2841 1681 2658 
Q 1478 2475 1428 2131 
L 2881 2131 
z
" transform="scale(0.015625)"/>
       <path id="DejaVuSans-Bold-6c" d="M 538 4863 
L 1656 4863 
L 1656 0 
L 538 0 
L 538 4863 
z
" transform="scale(0.015625)"/>
       <path id="DejaVuSans-Bold-72" d="M 3138 2547 
Q 2991 2616 2845 2648 
Q 2700 2681 2553 2681 
Q 2122 2681 1889 2404 
Q 1656 2128 1656 1613 
L 1656 0 
L 538 0 
L 538 3500 
L 1656 3500 
L 1656 2925 
Q 1872 3269 2151 3426 
Q 2431 3584 2822 3584 
Q 2878 3584 2943 3579 
Q 3009 3575 3134 3559 
L 3138 2547 
z
" transform="scale(0.015625)"/>
      </defs>
      <use xlink:href="#DejaVuSans-Bold-4d"/>
      <use xlink:href="#DejaVuSans-Bold-6f" x="99.511719"/>
      <use xlink:href="#DejaVuSans-Bold-64" x="168.212891"/>
      <use xlink:href="#DejaVuSans-Bold-65" x="239.794922"/>
      <use xlink:href="#DejaVuSans-Bold-6c" x="307.617188"/>
      <use xlink:href="#DejaVuSans-Bold-6c" x="341.894531"/>
      <use xlink:href="#DejaVuSans-Bold-65" x="376.171875"/>
      <use xlink:href="#DejaVuSans-Bold-72" x="443.994141"/>
     </g>
    </g>
   </g>
   <g id="matplotlib.axis_2">
    <g id="ytick_1">
     <g id="line2d_13">
      <path d="M 48.216875 392.517712 
L 633.20953 392.517712 
" clip-path="url(#p1c086cfe16)" style="fill: none; stroke-dasharray: 2.59,1.12; stroke-dashoffset: 0; stroke: #eeeeee; stroke-opacity: 0.3; stroke-width: 0.7"/>
     </g>
     <g id="text_14">
      <!-- 0.0 -->
      <g style="fill: #262626" transform="translate(22.81375 396.316931) scale(0.1 -0.1)">
       <defs>
        <path id="DejaVuSans-30" d="M 2034 4250 
Q 1547 4250 1301 3770 
Q 1056 3291 1056 2328 
Q 1056 1369 1301 889 
Q 1547 409 2034 409 
Q 2525 409 2770 889 
Q 3016 1369 3016 2328 
Q 3016 3291 2770 3770 
Q 2525 4250 2034 4250 
z
M 2034 4750 
Q 2819 4750 3233 4129 
Q 3647 3509 3647 2328 
Q 3647 1150 3233 529 
Q 2819 -91 2034 -91 
Q 1250 -91 836 529 
Q 422 1150 422 2328 
Q 422 3509 836 4129 
Q 1250 4750 2034 4750 
z
" transform="scale(0.015625)"/>
        <path id="DejaVuSans-2e" d="M 684 794 
L 1344 794 
L 1344 0 
L 684 0 
L 684 794 
z
" transform="scale(0.015625)"/>
       </defs>
       <use xlink:href="#DejaVuSans-30"/>
       <use xlink:href="#DejaVuSans-2e" x="63.623047"/>
       <use xlink:href="#DejaVuSans-30" x="95.410156"/>
      </g>
     </g>
    </g>
    <g id="ytick_2">
     <g id="line2d_14">
      <path d="M 48.216875 322.35797 
L 633.20953 322.35797 
" clip-path="url(#p1c086cfe16)" style="fill: none; stroke-dasharray: 2.59,1.12; stroke-dashoffset: 0; stroke: #eeeeee; stroke-opacity: 0.3; stroke-width: 0.7"/>
     </g>
     <g id="text_15">
      <!-- 0.2 -->
      <g style="fill: #262626" transform="translate(22.81375 326.157188) scale(0.1 -0.1)">
       <defs>
        <path id="DejaVuSans-32" d="M 1228 531 
L 3431 531 
L 3431 0 
L 469 0 
L 469 531 
Q 828 903 1448 1529 
Q 2069 2156 2228 2338 
Q 2531 2678 2651 2914 
Q 2772 3150 2772 3378 
Q 2772 3750 2511 3984 
Q 2250 4219 1831 4219 
Q 1534 4219 1204 4116 
Q 875 4013 500 3803 
L 500 4441 
Q 881 4594 1212 4672 
Q 1544 4750 1819 4750 
Q 2544 4750 2975 4387 
Q 3406 4025 3406 3419 
Q 3406 3131 3298 2873 
Q 3191 2616 2906 2266 
Q 2828 2175 2409 1742 
Q 1991 1309 1228 531 
z
" transform="scale(0.015625)"/>
       </defs>
       <use xlink:href="#DejaVuSans-30"/>
       <use xlink:href="#DejaVuSans-2e" x="63.623047"/>
       <use xlink:href="#DejaVuSans-32" x="95.410156"/>
      </g>
     </g>
    </g>
    <g id="ytick_3">
     <g id="line2d_15">
      <path d="M 48.216875 252.198227 
L 633.20953 252.198227 
" clip-path="url(#p1c086cfe16)" style="fill: none; stroke-dasharray: 2.59,1.12; stroke-dashoffset: 0; stroke: #eeeeee; stroke-opacity: 0.3; stroke-width: 0.7"/>
     </g>
     <g id="text_16">
      <!-- 0.4 -->
      <g style="fill: #262626" transform="translate(22.81375 255.997446) scale(0.1 -0.1)">
       <defs>
        <path id="DejaVuSans-34" d="M 2419 4116 
L 825 1625 
L 2419 1625 
L 2419 4116 
z
M 2253 4666 
L 3047 4666 
L 3047 1625 
L 3713 1625 
L 3713 1100 
L 3047 1100 
L 3047 0 
L 2419 0 
L 2419 1100 
L 313 1100 
L 313 1709 
L 2253 4666 
z
" transform="scale(0.015625)"/>
       </defs>
       <use xlink:href="#DejaVuSans-30"/>
       <use xlink:href="#DejaVuSans-2e" x="63.623047"/>
       <use xlink:href="#DejaVuSans-34" x="95.410156"/>
      </g>
     </g>
    </g>
    <g id="ytick_4">
     <g id="line2d_16">
      <path d="M 48.216875 182.038484 
L 633.20953 182.038484 
" clip-path="url(#p1c086cfe16)" style="fill: none; stroke-dasharray: 2.59,1.12; stroke-dashoffset: 0; stroke: #eeeeee; stroke-opacity: 0.3; stroke-width: 0.7"/>
     </g>
     <g id="text_17">
      <!-- 0.6 -->
      <g style="fill: #262626" transform="translate(22.81375 185.837703) scale(0.1 -0.1)">
       <defs>
        <path id="DejaVuSans-36" d="M 2113 2584 
Q 1688 2584 1439 2293 
Q 1191 2003 1191 1497 
Q 1191 994 1439 701 
Q 1688 409 2113 409 
Q 2538 409 2786 701 
Q 3034 994 3034 1497 
Q 3034 2003 2786 2293 
Q 2538 2584 2113 2584 
z
M 3366 4563 
L 3366 3988 
Q 3128 4100 2886 4159 
Q 2644 4219 2406 4219 
Q 1781 4219 1451 3797 
Q 1122 3375 1075 2522 
Q 1259 2794 1537 2939 
Q 1816 3084 2150 3084 
Q 2853 3084 3261 2657 
Q 3669 2231 3669 1497 
Q 3669 778 3244 343 
Q 2819 -91 2113 -91 
Q 1303 -91 875 529 
Q 447 1150 447 2328 
Q 447 3434 972 4092 
Q 1497 4750 2381 4750 
Q 2619 4750 2861 4703 
Q 3103 4656 3366 4563 
z
" transform="scale(0.015625)"/>
       </defs>
       <use xlink:href="#DejaVuSans-30"/>
       <use xlink:href="#DejaVuSans-2e" x="63.623047"/>
       <use xlink:href="#DejaVuSans-36" x="95.410156"/>
      </g>
     </g>
    </g>
    <g id="ytick_5">
     <g id="line2d_17">
      <path d="M 48.216875 111.878741 
L 633.20953 111.878741 
" clip-path="url(#p1c086cfe16)" style="fill: none; stroke-dasharray: 2.59,1.12; stroke-dashoffset: 0; stroke: #eeeeee; stroke-opacity: 0.3; stroke-width: 0.7"/>
     </g>
     <g id="text_18">
      <!-- 0.8 -->
      <g style="fill: #262626" transform="translate(22.81375 115.67796) scale(0.1 -0.1)">
       <defs>
        <path id="DejaVuSans-38" d="M 2034 2216 
Q 1584 2216 1326 1975 
Q 1069 1734 1069 1313 
Q 1069 891 1326 650 
Q 1584 409 2034 409 
Q 2484 409 2743 651 
Q 3003 894 3003 1313 
Q 3003 1734 2745 1975 
Q 2488 2216 2034 2216 
z
M 1403 2484 
Q 997 2584 770 2862 
Q 544 3141 544 3541 
Q 544 4100 942 4425 
Q 1341 4750 2034 4750 
Q 2731 4750 3128 4425 
Q 3525 4100 3525 3541 
Q 3525 3141 3298 2862 
Q 3072 2584 2669 2484 
Q 3125 2378 3379 2068 
Q 3634 1759 3634 1313 
Q 3634 634 3220 271 
Q 2806 -91 2034 -91 
Q 1263 -91 848 271 
Q 434 634 434 1313 
Q 434 1759 690 2068 
Q 947 2378 1403 2484 
z
M 1172 3481 
Q 1172 3119 1398 2916 
Q 1625 2713 2034 2713 
Q 2441 2713 2670 2916 
Q 2900 3119 2900 3481 
Q 2900 3844 2670 4047 
Q 2441 4250 2034 4250 
Q 1625 4250 1398 4047 
Q 1172 3844 1172 3481 
z
" transform="scale(0.015625)"/>
       </defs>
       <use xlink:href="#DejaVuSans-30"/>
       <use xlink:href="#DejaVuSans-2e" x="63.623047"/>
       <use xlink:href="#DejaVuSans-38" x="95.410156"/>
      </g>
     </g>
    </g>
    <g id="ytick_6">
     <g id="line2d_18">
      <path d="M 48.216875 41.718998 
L 633.20953 41.718998 
" clip-path="url(#p1c086cfe16)" style="fill: none; stroke-dasharray: 2.59,1.12; stroke-dashoffset: 0; stroke: #eeeeee; stroke-opacity: 0.3; stroke-width: 0.7"/>
     </g>
     <g id="text_19">
      <!-- 1.0 -->
      <g style="fill: #262626" transform="translate(22.81375 45.518217) scale(0.1 -0.1)">
       <defs>
        <path id="DejaVuSans-31" d="M 794 531 
L 1825 531 
L 1825 4091 
L 703 3866 
L 703 4441 
L 1819 4666 
L 2450 4666 
L 2450 531 
L 3481 531 
L 3481 0 
L 794 0 
L 794 531 
z
" transform="scale(0.015625)"/>
       </defs>
       <use xlink:href="#DejaVuSans-31"/>
       <use xlink:href="#DejaVuSans-2e" x="63.623047"/>
       <use xlink:href="#DejaVuSans-30" x="95.410156"/>
      </g>
     </g>
    </g>
    <g id="text_20">
     <!-- R² Skoru -->
     <g style="fill: #262626" transform="translate(16.318125 237.190575) rotate(-90) scale(0.12 -0.12)">
      <defs>
       <path id="DejaVuSans-Bold-52" d="M 2297 2597 
Q 2675 2597 2839 2737 
Q 3003 2878 3003 3200 
Q 3003 3519 2839 3656 
Q 2675 3794 2297 3794 
L 1791 3794 
L 1791 2597 
L 2297 2597 
z
M 1791 1766 
L 1791 0 
L 588 0 
L 588 4666 
L 2425 4666 
Q 3347 4666 3776 4356 
Q 4206 4047 4206 3378 
Q 4206 2916 3982 2619 
Q 3759 2322 3309 2181 
Q 3556 2125 3751 1926 
Q 3947 1728 4147 1325 
L 4800 0 
L 3519 0 
L 2950 1159 
Q 2778 1509 2601 1637 
Q 2425 1766 2131 1766 
L 1791 1766 
z
" transform="scale(0.015625)"/>
       <path id="DejaVuSans-Bold-b2" d="M 1288 2613 
L 2444 2613 
L 2444 2088 
L 341 2088 
L 341 2566 
L 1319 3397 
Q 1509 3563 1590 3688 
Q 1672 3813 1672 3938 
Q 1672 4094 1558 4191 
Q 1444 4288 1259 4288 
Q 1066 4288 844 4217 
Q 622 4147 359 4000 
L 359 4581 
Q 631 4666 886 4708 
Q 1141 4750 1375 4750 
Q 1869 4750 2150 4548 
Q 2431 4347 2431 4000 
Q 2431 3775 2320 3586 
Q 2209 3397 1894 3128 
L 1288 2613 
z
" transform="scale(0.015625)"/>
       <path id="DejaVuSans-Bold-20" transform="scale(0.015625)"/>
       <path id="DejaVuSans-Bold-53" d="M 3834 4519 
L 3834 3531 
Q 3450 3703 3084 3790 
Q 2719 3878 2394 3878 
Q 1963 3878 1756 3759 
Q 1550 3641 1550 3391 
Q 1550 3203 1689 3098 
Q 1828 2994 2194 2919 
L 2706 2816 
Q 3484 2659 3812 2340 
Q 4141 2022 4141 1434 
Q 4141 663 3683 286 
Q 3225 -91 2284 -91 
Q 1841 -91 1394 -6 
Q 947 78 500 244 
L 500 1259 
Q 947 1022 1364 901 
Q 1781 781 2169 781 
Q 2563 781 2772 912 
Q 2981 1044 2981 1288 
Q 2981 1506 2839 1625 
Q 2697 1744 2272 1838 
L 1806 1941 
Q 1106 2091 782 2419 
Q 459 2747 459 3303 
Q 459 4000 909 4375 
Q 1359 4750 2203 4750 
Q 2588 4750 2994 4692 
Q 3400 4634 3834 4519 
z
" transform="scale(0.015625)"/>
       <path id="DejaVuSans-Bold-6b" d="M 538 4863 
L 1656 4863 
L 1656 2216 
L 2944 3500 
L 4244 3500 
L 2534 1894 
L 4378 0 
L 3022 0 
L 1656 1459 
L 1656 0 
L 538 0 
L 538 4863 
z
" transform="scale(0.015625)"/>
       <path id="DejaVuSans-Bold-75" d="M 500 1363 
L 500 3500 
L 1625 3500 
L 1625 3150 
Q 1625 2866 1622 2436 
Q 1619 2006 1619 1863 
Q 1619 1441 1641 1255 
Q 1663 1069 1716 984 
Q 1784 875 1895 815 
Q 2006 756 2150 756 
Q 2500 756 2700 1025 
Q 2900 1294 2900 1772 
L 2900 3500 
L 4019 3500 
L 4019 0 
L 2900 0 
L 2900 506 
Q 2647 200 2364 54 
Q 2081 -91 1741 -91 
Q 1134 -91 817 281 
Q 500 653 500 1363 
z
" transform="scale(0.015625)"/>
      </defs>
      <use xlink:href="#DejaVuSans-Bold-52"/>
      <use xlink:href="#DejaVuSans-Bold-b2" x="77.001953"/>
      <use xlink:href="#DejaVuSans-Bold-20" x="120.800781"/>
      <use xlink:href="#DejaVuSans-Bold-53" x="155.615234"/>
      <use xlink:href="#DejaVuSans-Bold-6b" x="227.636719"/>
      <use xlink:href="#DejaVuSans-Bold-6f" x="291.515625"/>
      <use xlink:href="#DejaVuSans-Bold-72" x="360.216797"/>
      <use xlink:href="#DejaVuSans-Bold-75" x="409.533203"/>
     </g>
    </g>
   </g>
   <g id="patch_3">
    <path d="M 74.80745 392.517712 
L 86.122589 392.517712 
L 86.122589 157.170036 
L 74.80745 157.170036 
z
" clip-path="url(#p1c086cfe16)" style="fill: #ff6b6b; opacity: 0.8; stroke: #ffffff; stroke-linejoin: miter"/>
   </g>
   <g id="patch_4">
    <path d="M 120.068004 392.517712 
L 131.383142 392.517712 
L 131.383142 157.171329 
L 120.068004 157.171329 
z
" clip-path="url(#p1c086cfe16)" style="fill: #ff6b6b; opacity: 0.8; stroke: #ffffff; stroke-linejoin: miter"/>
   </g>
   <g id="patch_5">
    <path d="M 165.328557 392.517712 
L 176.643696 392.517712 
L 176.643696 157.170829 
L 165.328557 157.170829 
z
" clip-path="url(#p1c086cfe16)" style="fill: #ff6b6b; opacity: 0.8; stroke: #ffffff; stroke-linejoin: miter"/>
   </g>
   <g id="patch_6">
    <path d="M 210.589111 392.517712 
L 221.904249 392.517712 
L 221.904249 168.428175 
L 210.589111 168.428175 
z
" clip-path="url(#p1c086cfe16)" style="fill: #ff6b6b; opacity: 0.8; stroke: #ffffff; stroke-linejoin: miter"/>
   </g>
   <g id="patch_7">
    <path d="M 255.849665 392.517712 
L 267.164803 392.517712 
L 267.164803 113.583156 
L 255.849665 113.583156 
z
" clip-path="url(#p1c086cfe16)" style="fill: #ff6b6b; opacity: 0.8; stroke: #ffffff; stroke-linejoin: miter"/>
   </g>
   <g id="patch_8">
    <path d="M 301.110218 392.517712 
L 312.425357 392.517712 
L 312.425357 85.015709 
L 301.110218 85.015709 
z
" clip-path="url(#p1c086cfe16)" style="fill: #ff6b6b; opacity: 0.8; stroke: #ffffff; stroke-linejoin: miter"/>
   </g>
   <g id="patch_9">
    <path d="M 346.370772 392.517712 
L 357.68591 392.517712 
L 357.68591 111.388365 
L 346.370772 111.388365 
z
" clip-path="url(#p1c086cfe16)" style="fill: #ff6b6b; opacity: 0.8; stroke: #ffffff; stroke-linejoin: miter"/>
   </g>
   <g id="patch_10">
    <path d="M 391.631325 392.517712 
L 402.946464 392.517712 
L 402.946464 113.382285 
L 391.631325 113.382285 
z
" clip-path="url(#p1c086cfe16)" style="fill: #ff6b6b; opacity: 0.8; stroke: #ffffff; stroke-linejoin: miter"/>
   </g>
   <g id="patch_11">
    <path d="M 436.891879 392.517712 
L 448.207017 392.517712 
L 448.207017 120.01215 
L 436.891879 120.01215 
z
" clip-path="url(#p1c086cfe16)" style="fill: #ff6b6b; opacity: 0.8; stroke: #ffffff; stroke-linejoin: miter"/>
   </g>
   <g id="patch_12">
    <path d="M 482.152433 392.517712 
L 493.467571 392.517712 
L 493.467571 143.816993 
L 482.152433 143.816993 
z
" clip-path="url(#p1c086cfe16)" style="fill: #ff6b6b; opacity: 0.8; stroke: #ffffff; stroke-linejoin: miter"/>
   </g>
   <g id="patch_13">
    <path d="M 527.412986 392.517712 
L 538.728125 392.517712 
L 538.728125 173.952073 
L 527.412986 173.952073 
z
" clip-path="url(#p1c086cfe16)" style="fill: #ff6b6b; opacity: 0.8; stroke: #ffffff; stroke-linejoin: miter"/>
   </g>
   <g id="patch_14">
    <path d="M 572.67354 392.517712 
L 583.988678 392.517712 
L 583.988678 41.726297 
L 572.67354 41.726297 
z
" clip-path="url(#p1c086cfe16)" style="fill: #ff6b6b; opacity: 0.8; stroke: #ffffff; stroke-linejoin: miter"/>
   </g>
   <g id="patch_15">
    <path d="M 86.122589 392.517712 
L 97.437727 392.517712 
L 97.437727 157.833881 
L 86.122589 157.833881 
z
" clip-path="url(#p1c086cfe16)" style="fill: #4ecdc4; opacity: 0.8; stroke: #ffffff; stroke-linejoin: miter"/>
   </g>
   <g id="patch_16">
    <path d="M 131.383142 392.517712 
L 142.698281 392.517712 
L 142.698281 157.824287 
L 131.383142 157.824287 
z
" clip-path="url(#p1c086cfe16)" style="fill: #4ecdc4; opacity: 0.8; stroke: #ffffff; stroke-linejoin: miter"/>
   </g>
   <g id="patch_17">
    <path d="M 176.643696 392.517712 
L 187.958834 392.517712 
L 187.958834 157.833698 
L 176.643696 157.833698 
z
" clip-path="url(#p1c086cfe16)" style="fill: #4ecdc4; opacity: 0.8; stroke: #ffffff; stroke-linejoin: miter"/>
   </g>
   <g id="patch_18">
    <path d="M 221.904249 392.517712 
L 233.219388 392.517712 
L 233.219388 160.584361 
L 221.904249 160.584361 
z
" clip-path="url(#p1c086cfe16)" style="fill: #4ecdc4; opacity: 0.8; stroke: #ffffff; stroke-linejoin: miter"/>
   </g>
   <g id="patch_19">
    <path d="M 267.164803 392.517712 
L 278.479941 392.517712 
L 278.479941 149.674657 
L 267.164803 149.674657 
z
" clip-path="url(#p1c086cfe16)" style="fill: #4ecdc4; opacity: 0.8; stroke: #ffffff; stroke-linejoin: miter"/>
   </g>
   <g id="patch_20">
    <path d="M 312.425357 392.517712 
L 323.740495 392.517712 
L 323.740495 138.680162 
L 312.425357 138.680162 
z
" clip-path="url(#p1c086cfe16)" style="fill: #4ecdc4; opacity: 0.8; stroke: #ffffff; stroke-linejoin: miter"/>
   </g>
   <g id="patch_21">
    <path d="M 357.68591 392.517712 
L 369.001049 392.517712 
L 369.001049 135.435108 
L 357.68591 135.435108 
z
" clip-path="url(#p1c086cfe16)" style="fill: #4ecdc4; opacity: 0.8; stroke: #ffffff; stroke-linejoin: miter"/>
   </g>
   <g id="patch_22">
    <path d="M 402.946464 392.517712 
L 414.261602 392.517712 
L 414.261602 136.78031 
L 402.946464 136.78031 
z
" clip-path="url(#p1c086cfe16)" style="fill: #4ecdc4; opacity: 0.8; stroke: #ffffff; stroke-linejoin: miter"/>
   </g>
   <g id="patch_23">
    <path d="M 448.207017 392.517712 
L 459.522156 392.517712 
L 459.522156 135.28282 
L 448.207017 135.28282 
z
" clip-path="url(#p1c086cfe16)" style="fill: #4ecdc4; opacity: 0.8; stroke: #ffffff; stroke-linejoin: miter"/>
   </g>
   <g id="patch_24">
    <path d="M 493.467571 392.517712 
L 504.782709 392.517712 
L 504.782709 144.36627 
L 493.467571 144.36627 
z
" clip-path="url(#p1c086cfe16)" style="fill: #4ecdc4; opacity: 0.8; stroke: #ffffff; stroke-linejoin: miter"/>
   </g>
   <g id="patch_25">
    <path d="M 538.728125 392.517712 
L 550.043263 392.517712 
L 550.043263 214.225568 
L 538.728125 214.225568 
z
" clip-path="url(#p1c086cfe16)" style="fill: #4ecdc4; opacity: 0.8; stroke: #ffffff; stroke-linejoin: miter"/>
   </g>
   <g id="patch_26">
    <path d="M 583.988678 392.517712 
L 595.303816 392.517712 
L 595.303816 226.948243 
L 583.988678 226.948243 
z
" clip-path="url(#p1c086cfe16)" style="fill: #4ecdc4; opacity: 0.8; stroke: #ffffff; stroke-linejoin: miter"/>
   </g>
   <g id="patch_27">
    <path d="M 97.437727 392.517712 
L 108.752865 392.517712 
L 108.752865 162.420084 
L 97.437727 162.420084 
z
" clip-path="url(#p1c086cfe16)" style="fill: #45b7d1; opacity: 0.8; stroke: #ffffff; stroke-linejoin: miter"/>
   </g>
   <g id="patch_28">
    <path d="M 142.698281 392.517712 
L 154.013419 392.517712 
L 154.013419 162.368689 
L 142.698281 162.368689 
z
" clip-path="url(#p1c086cfe16)" style="fill: #45b7d1; opacity: 0.8; stroke: #ffffff; stroke-linejoin: miter"/>
   </g>
   <g id="patch_29">
    <path d="M 187.958834 392.517712 
L 199.273973 392.517712 
L 199.273973 162.380427 
L 187.958834 162.380427 
z
" clip-path="url(#p1c086cfe16)" style="fill: #45b7d1; opacity: 0.8; stroke: #ffffff; stroke-linejoin: miter"/>
   </g>
   <g id="patch_30">
    <path d="M 233.219388 392.517712 
L 244.534526 392.517712 
L 244.534526 169.748224 
L 233.219388 169.748224 
z
" clip-path="url(#p1c086cfe16)" style="fill: #45b7d1; opacity: 0.8; stroke: #ffffff; stroke-linejoin: miter"/>
   </g>
   <g id="patch_31">
    <path d="M 278.479941 392.517712 
L 289.79508 392.517712 
L 289.79508 154.579987 
L 278.479941 154.579987 
z
" clip-path="url(#p1c086cfe16)" style="fill: #45b7d1; opacity: 0.8; stroke: #ffffff; stroke-linejoin: miter"/>
   </g>
   <g id="patch_32">
    <path d="M 323.740495 392.517712 
L 335.055633 392.517712 
L 335.055633 139.76562 
L 323.740495 139.76562 
z
" clip-path="url(#p1c086cfe16)" style="fill: #45b7d1; opacity: 0.8; stroke: #ffffff; stroke-linejoin: miter"/>
   </g>
   <g id="patch_33">
    <path d="M 369.001049 392.517712 
L 380.316187 392.517712 
L 380.316187 137.166709 
L 369.001049 137.166709 
z
" clip-path="url(#p1c086cfe16)" style="fill: #45b7d1; opacity: 0.8; stroke: #ffffff; stroke-linejoin: miter"/>
   </g>
   <g id="patch_34">
    <path d="M 414.261602 392.517712 
L 425.576741 392.517712 
L 425.576741 138.90248 
L 414.261602 138.90248 
z
" clip-path="url(#p1c086cfe16)" style="fill: #45b7d1; opacity: 0.8; stroke: #ffffff; stroke-linejoin: miter"/>
   </g>
   <g id="patch_35">
    <path d="M 459.522156 392.517712 
L 470.837294 392.517712 
L 470.837294 137.005503 
L 459.522156 137.005503 
z
" clip-path="url(#p1c086cfe16)" style="fill: #45b7d1; opacity: 0.8; stroke: #ffffff; stroke-linejoin: miter"/>
   </g>
   <g id="patch_36">
    <path d="M 504.782709 392.517712 
L 516.097848 392.517712 
L 516.097848 151.141192 
L 504.782709 151.141192 
z
" clip-path="url(#p1c086cfe16)" style="fill: #45b7d1; opacity: 0.8; stroke: #ffffff; stroke-linejoin: miter"/>
   </g>
   <g id="patch_37">
    <path d="M 550.043263 392.517712 
L 561.358401 392.517712 
L 561.358401 178.378686 
L 550.043263 178.378686 
z
" clip-path="url(#p1c086cfe16)" style="fill: #45b7d1; opacity: 0.8; stroke: #ffffff; stroke-linejoin: miter"/>
   </g>
   <g id="patch_38">
    <path d="M 595.303816 392.517712 
L 606.618955 392.517712 
L 606.618955 164.706906 
L 595.303816 164.706906 
z
" clip-path="url(#p1c086cfe16)" style="fill: #45b7d1; opacity: 0.8; stroke: #ffffff; stroke-linejoin: miter"/>
   </g>
   <g id="patch_39">
    <path d="M 48.216875 392.517712 
L 48.216875 24.179062 
" style="fill: none; stroke: #cccccc; stroke-width: 1.25; stroke-linejoin: miter; stroke-linecap: square"/>
   </g>
   <g id="patch_40">
    <path d="M 633.20953 392.517712 
L 633.20953 24.179062 
" style="fill: none; stroke: #cccccc; stroke-width: 1.25; stroke-linejoin: miter; stroke-linecap: square"/>
   </g>
   <g id="patch_41">
    <path d="M 48.216875 392.517712 
L 633.20953 392.517712 
" style="fill: none; stroke: #cccccc; stroke-width: 1.25; stroke-linejoin: miter; stroke-linecap: square"/>
   </g>
   <g id="patch_42">
    <path d="M 48.216875 24.179062 
L 633.20953 24.179062 
" style="fill: none; stroke: #cccccc; stroke-width: 1.25; stroke-linejoin: miter; stroke-linecap: square"/>
   </g>
   <g id="text_21">
    <!-- Train vs CV vs Test R² Skorlarının Karşılaştırması -->
    <g style="fill: #262626" transform="translate(149.163671 18.179062) scale(0.14 -0.14)">
     <defs>
      <path id="DejaVuSans-Bold-54" d="M 31 4666 
L 4331 4666 
L 4331 3756 
L 2784 3756 
L 2784 0 
L 1581 0 
L 1581 3756 
L 31 3756 
L 31 4666 
z
" transform="scale(0.015625)"/>
      <path id="DejaVuSans-Bold-61" d="M 2106 1575 
Q 1756 1575 1579 1456 
Q 1403 1338 1403 1106 
Q 1403 894 1545 773 
Q 1688 653 1941 653 
Q 2256 653 2472 879 
Q 2688 1106 2688 1447 
L 2688 1575 
L 2106 1575 
z
M 3816 1997 
L 3816 0 
L 2688 0 
L 2688 519 
Q 2463 200 2181 54 
Q 1900 -91 1497 -91 
Q 953 -91 614 226 
Q 275 544 275 1050 
Q 275 1666 698 1953 
Q 1122 2241 2028 2241 
L 2688 2241 
L 2688 2328 
Q 2688 2594 2478 2717 
Q 2269 2841 1825 2841 
Q 1466 2841 1156 2769 
Q 847 2697 581 2553 
L 581 3406 
Q 941 3494 1303 3539 
Q 1666 3584 2028 3584 
Q 2975 3584 3395 3211 
Q 3816 2838 3816 1997 
z
" transform="scale(0.015625)"/>
      <path id="DejaVuSans-Bold-69" d="M 538 3500 
L 1656 3500 
L 1656 0 
L 538 0 
L 538 3500 
z
M 538 4863 
L 1656 4863 
L 1656 3950 
L 538 3950 
L 538 4863 
z
" transform="scale(0.015625)"/>
      <path id="DejaVuSans-Bold-6e" d="M 4056 2131 
L 4056 0 
L 2931 0 
L 2931 347 
L 2931 1631 
Q 2931 2084 2911 2256 
Q 2891 2428 2841 2509 
Q 2775 2619 2662 2680 
Q 2550 2741 2406 2741 
Q 2056 2741 1856 2470 
Q 1656 2200 1656 1722 
L 1656 0 
L 538 0 
L 538 3500 
L 1656 3500 
L 1656 2988 
Q 1909 3294 2193 3439 
Q 2478 3584 2822 3584 
Q 3428 3584 3742 3212 
Q 4056 2841 4056 2131 
z
" transform="scale(0.015625)"/>
      <path id="DejaVuSans-Bold-76" d="M 97 3500 
L 1216 3500 
L 2088 1081 
L 2956 3500 
L 4078 3500 
L 2700 0 
L 1472 0 
L 97 3500 
z
" transform="scale(0.015625)"/>
      <path id="DejaVuSans-Bold-73" d="M 3272 3391 
L 3272 2541 
Q 2913 2691 2578 2766 
Q 2244 2841 1947 2841 
Q 1628 2841 1473 2761 
Q 1319 2681 1319 2516 
Q 1319 2381 1436 2309 
Q 1553 2238 1856 2203 
L 2053 2175 
Q 2913 2066 3209 1816 
Q 3506 1566 3506 1031 
Q 3506 472 3093 190 
Q 2681 -91 1863 -91 
Q 1516 -91 1145 -36 
Q 775 19 384 128 
L 384 978 
Q 719 816 1070 734 
Q 1422 653 1784 653 
Q 2113 653 2278 743 
Q 2444 834 2444 1013 
Q 2444 1163 2330 1236 
Q 2216 1309 1875 1350 
L 1678 1375 
Q 931 1469 631 1722 
Q 331 1975 331 2491 
Q 331 3047 712 3315 
Q 1094 3584 1881 3584 
Q 2191 3584 2531 3537 
Q 2872 3491 3272 3391 
z
" transform="scale(0.015625)"/>
      <path id="DejaVuSans-Bold-43" d="M 4288 256 
Q 3956 84 3597 -3 
Q 3238 -91 2847 -91 
Q 1681 -91 1000 561 
Q 319 1213 319 2328 
Q 319 3447 1000 4098 
Q 1681 4750 2847 4750 
Q 3238 4750 3597 4662 
Q 3956 4575 4288 4403 
L 4288 3438 
Q 3953 3666 3628 3772 
Q 3303 3878 2944 3878 
Q 2300 3878 1931 3465 
Q 1563 3053 1563 2328 
Q 1563 1606 1931 1193 
Q 2300 781 2944 781 
Q 3303 781 3628 887 
Q 3953 994 4288 1222 
L 4288 256 
z
" transform="scale(0.015625)"/>
      <path id="DejaVuSans-Bold-56" d="M 31 4666 
L 1241 4666 
L 2478 1222 
L 3713 4666 
L 4922 4666 
L 3194 0 
L 1759 0 
L 31 4666 
z
" transform="scale(0.015625)"/>
      <path id="DejaVuSans-Bold-74" d="M 1759 4494 
L 1759 3500 
L 2913 3500 
L 2913 2700 
L 1759 2700 
L 1759 1216 
Q 1759 972 1856 886 
Q 1953 800 2241 800 
L 2816 800 
L 2816 0 
L 1856 0 
Q 1194 0 917 276 
Q 641 553 641 1216 
L 641 2700 
L 84 2700 
L 84 3500 
L 641 3500 
L 641 4494 
L 1759 4494 
z
" transform="scale(0.015625)"/>
      <path id="DejaVuSans-Bold-131" d="M 538 3500 
L 1656 3500 
L 1656 0 
L 538 0 
L 538 3500 
z
" transform="scale(0.015625)"/>
      <path id="DejaVuSans-Bold-4b" d="M 588 4666 
L 1791 4666 
L 1791 2963 
L 3525 4666 
L 4922 4666 
L 2675 2456 
L 5153 0 
L 3647 0 
L 1791 1838 
L 1791 0 
L 588 0 
L 588 4666 
z
" transform="scale(0.015625)"/>
      <path id="DejaVuSans-Bold-15f" d="M 3272 3391 
L 3272 2541 
Q 2913 2691 2578 2766 
Q 2244 2841 1947 2841 
Q 1628 2841 1473 2761 
Q 1319 2681 1319 2516 
Q 1319 2381 1436 2309 
Q 1553 2238 1856 2203 
L 2053 2175 
Q 2913 2066 3209 1816 
Q 3506 1566 3506 1031 
Q 3506 472 3093 190 
Q 2681 -91 1863 -91 
Q 1516 -91 1145 -36 
Q 775 19 384 128 
L 384 978 
Q 719 816 1070 734 
Q 1422 653 1784 653 
Q 2113 653 2278 743 
Q 2444 834 2444 1013 
Q 2444 1163 2330 1236 
Q 2216 1309 1875 1350 
L 1678 1375 
Q 931 1469 631 1722 
Q 331 1975 331 2491 
Q 331 3047 712 3315 
Q 1094 3584 1881 3584 
Q 2191 3584 2531 3537 
Q 2872 3491 3272 3391 
z
M 2188 0 
Q 2369 -194 2455 -359 
Q 2541 -525 2541 -672 
Q 2541 -969 2348 -1111 
Q 2156 -1253 1759 -1253 
Q 1609 -1253 1450 -1233 
Q 1291 -1213 1128 -1172 
L 1125 -697 
Q 1281 -747 1411 -770 
Q 1541 -794 1644 -794 
Q 1825 -794 1926 -722 
Q 2028 -650 2028 -525 
Q 2028 -444 1961 -316 
Q 1894 -188 1753 0 
L 2188 0 
z
" transform="scale(0.015625)"/>
      <path id="DejaVuSans-Bold-6d" d="M 3781 2919 
Q 3994 3244 4286 3414 
Q 4578 3584 4928 3584 
Q 5531 3584 5847 3212 
Q 6163 2841 6163 2131 
L 6163 0 
L 5038 0 
L 5038 1825 
Q 5041 1866 5042 1909 
Q 5044 1953 5044 2034 
Q 5044 2406 4934 2573 
Q 4825 2741 4581 2741 
Q 4263 2741 4089 2478 
Q 3916 2216 3909 1719 
L 3909 0 
L 2784 0 
L 2784 1825 
Q 2784 2406 2684 2573 
Q 2584 2741 2328 2741 
Q 2006 2741 1831 2477 
Q 1656 2213 1656 1722 
L 1656 0 
L 531 0 
L 531 3500 
L 1656 3500 
L 1656 2988 
Q 1863 3284 2130 3434 
Q 2397 3584 2719 3584 
Q 3081 3584 3359 3409 
Q 3638 3234 3781 2919 
z
" transform="scale(0.015625)"/>
     </defs>
     <use xlink:href="#DejaVuSans-Bold-54"/>
     <use xlink:href="#DejaVuSans-Bold-72" x="57.212891"/>
     <use xlink:href="#DejaVuSans-Bold-61" x="106.529297"/>
     <use xlink:href="#DejaVuSans-Bold-69" x="174.009766"/>
     <use xlink:href="#DejaVuSans-Bold-6e" x="208.287109"/>
     <use xlink:href="#DejaVuSans-Bold-20" x="279.478516"/>
     <use xlink:href="#DejaVuSans-Bold-76" x="314.292969"/>
     <use xlink:href="#DejaVuSans-Bold-73" x="379.478516"/>
     <use xlink:href="#DejaVuSans-Bold-20" x="439"/>
     <use xlink:href="#DejaVuSans-Bold-43" x="473.814453"/>
     <use xlink:href="#DejaVuSans-Bold-56" x="547.203125"/>
     <use xlink:href="#DejaVuSans-Bold-20" x="624.595703"/>
     <use xlink:href="#DejaVuSans-Bold-76" x="659.410156"/>
     <use xlink:href="#DejaVuSans-Bold-73" x="724.595703"/>
     <use xlink:href="#DejaVuSans-Bold-20" x="784.117188"/>
     <use xlink:href="#DejaVuSans-Bold-54" x="818.931641"/>
     <use xlink:href="#DejaVuSans-Bold-65" x="873.894531"/>
     <use xlink:href="#DejaVuSans-Bold-73" x="941.716797"/>
     <use xlink:href="#DejaVuSans-Bold-74" x="1001.238281"/>
     <use xlink:href="#DejaVuSans-Bold-20" x="1049.041016"/>
     <use xlink:href="#DejaVuSans-Bold-52" x="1083.855469"/>
     <use xlink:href="#DejaVuSans-Bold-b2" x="1160.857422"/>
     <use xlink:href="#DejaVuSans-Bold-20" x="1204.65625"/>
     <use xlink:href="#DejaVuSans-Bold-53" x="1239.470703"/>
     <use xlink:href="#DejaVuSans-Bold-6b" x="1311.492188"/>
     <use xlink:href="#DejaVuSans-Bold-6f" x="1375.371094"/>
     <use xlink:href="#DejaVuSans-Bold-72" x="1444.072266"/>
     <use xlink:href="#DejaVuSans-Bold-6c" x="1493.388672"/>
     <use xlink:href="#DejaVuSans-Bold-61" x="1527.666016"/>
     <use xlink:href="#DejaVuSans-Bold-72" x="1595.146484"/>
     <use xlink:href="#DejaVuSans-Bold-131" x="1644.462891"/>
     <use xlink:href="#DejaVuSans-Bold-6e" x="1678.740234"/>
     <use xlink:href="#DejaVuSans-Bold-131" x="1749.931641"/>
     <use xlink:href="#DejaVuSans-Bold-6e" x="1784.208984"/>
     <use xlink:href="#DejaVuSans-Bold-20" x="1855.400391"/>
     <use xlink:href="#DejaVuSans-Bold-4b" x="1890.214844"/>
     <use xlink:href="#DejaVuSans-Bold-61" x="1967.705078"/>
     <use xlink:href="#DejaVuSans-Bold-72" x="2035.185547"/>
     <use xlink:href="#DejaVuSans-Bold-15f" x="2084.501953"/>
     <use xlink:href="#DejaVuSans-Bold-131" x="2144.023438"/>
     <use xlink:href="#DejaVuSans-Bold-6c" x="2178.300781"/>
     <use xlink:href="#DejaVuSans-Bold-61" x="2212.578125"/>
     <use xlink:href="#DejaVuSans-Bold-15f" x="2280.058594"/>
     <use xlink:href="#DejaVuSans-Bold-74" x="2339.580078"/>
     <use xlink:href="#DejaVuSans-Bold-131" x="2387.382812"/>
     <use xlink:href="#DejaVuSans-Bold-72" x="2421.660156"/>
     <use xlink:href="#DejaVuSans-Bold-6d" x="2470.976562"/>
     <use xlink:href="#DejaVuSans-Bold-61" x="2575.175781"/>
     <use xlink:href="#DejaVuSans-Bold-73" x="2642.65625"/>
     <use xlink:href="#DejaVuSans-Bold-131" x="2702.177734"/>
    </g>
   </g>
   <g id="legend_1">
    <g id="patch_43">
     <path d="M 535.825155 387.517712 
L 626.20953 387.517712 
Q 628.20953 387.517712 628.20953 385.517712 
L 628.20953 342.483337 
Q 628.20953 340.483337 626.20953 340.483337 
L 535.825155 340.483337 
Q 533.825155 340.483337 533.825155 342.483337 
L 533.825155 385.517712 
Q 533.825155 387.517712 535.825155 387.517712 
z
" style="fill: #f9f9f9; opacity: 0.8; stroke: #cccccc; stroke-linejoin: miter"/>
    </g>
    <g id="patch_44">
     <path d="M 537.825155 352.081775 
L 557.825155 352.081775 
L 557.825155 345.081775 
L 537.825155 345.081775 
z
" style="fill: #ff6b6b; opacity: 0.8; stroke: #ffffff; stroke-linejoin: miter"/>
    </g>
    <g id="text_22">
     <!-- Train R² -->
     <g style="fill: #262626" transform="translate(565.825155 352.081775) scale(0.1 -0.1)">
      <defs>
       <path id="DejaVuSans-20" transform="scale(0.015625)"/>
       <path id="DejaVuSans-b2" d="M 838 2444 
L 2163 2444 
L 2163 2088 
L 294 2088 
L 294 2431 
Q 400 2528 597 2703 
Q 1672 3656 1672 3950 
Q 1672 4156 1509 4282 
Q 1347 4409 1081 4409 
Q 919 4409 728 4354 
Q 538 4300 313 4191 
L 313 4575 
Q 553 4663 761 4706 
Q 969 4750 1147 4750 
Q 1600 4750 1872 4544 
Q 2144 4338 2144 4000 
Q 2144 3566 1109 2678 
Q 934 2528 838 2444 
z
" transform="scale(0.015625)"/>
      </defs>
      <use xlink:href="#DejaVuSans-54"/>
      <use xlink:href="#DejaVuSans-72" x="46.333984"/>
      <use xlink:href="#DejaVuSans-61" x="87.447266"/>
      <use xlink:href="#DejaVuSans-69" x="148.726562"/>
      <use xlink:href="#DejaVuSans-6e" x="176.509766"/>
      <use xlink:href="#DejaVuSans-20" x="239.888672"/>
      <use xlink:href="#DejaVuSans-52" x="271.675781"/>
      <use xlink:href="#DejaVuSans-b2" x="341.158203"/>
     </g>
    </g>
    <g id="patch_45">
     <path d="M 537.825155 366.7599 
L 557.825155 366.7599 
L 557.825155 359.7599 
L 537.825155 359.7599 
z
" style="fill: #4ecdc4; opacity: 0.8; stroke: #ffffff; stroke-linejoin: miter"/>
    </g>
    <g id="text_23">
     <!-- CV Mean R² -->
     <g style="fill: #262626" transform="translate(565.825155 366.7599) scale(0.1 -0.1)">
      <defs>
       <path id="DejaVuSans-43" d="M 4122 4306 
L 4122 3641 
Q 3803 3938 3442 4084 
Q 3081 4231 2675 4231 
Q 1875 4231 1450 3742 
Q 1025 3253 1025 2328 
Q 1025 1406 1450 917 
Q 1875 428 2675 428 
Q 3081 428 3442 575 
Q 3803 722 4122 1019 
L 4122 359 
Q 3791 134 3420 21 
Q 3050 -91 2638 -91 
Q 1578 -91 968 557 
Q 359 1206 359 2328 
Q 359 3453 968 4101 
Q 1578 4750 2638 4750 
Q 3056 4750 3426 4639 
Q 3797 4528 4122 4306 
z
" transform="scale(0.015625)"/>
      </defs>
      <use xlink:href="#DejaVuSans-43"/>
      <use xlink:href="#DejaVuSans-56" x="69.824219"/>
      <use xlink:href="#DejaVuSans-20" x="138.232422"/>
      <use xlink:href="#DejaVuSans-4d" x="170.019531"/>
      <use xlink:href="#DejaVuSans-65" x="256.298828"/>
      <use xlink:href="#DejaVuSans-61" x="317.822266"/>
      <use xlink:href="#DejaVuSans-6e" x="379.101562"/>
      <use xlink:href="#DejaVuSans-20" x="442.480469"/>
      <use xlink:href="#DejaVuSans-52" x="474.267578"/>
      <use xlink:href="#DejaVuSans-b2" x="543.75"/>
     </g>
    </g>
    <g id="patch_46">
     <path d="M 537.825155 381.438025 
L 557.825155 381.438025 
L 557.825155 374.438025 
L 537.825155 374.438025 
z
" style="fill: #45b7d1; opacity: 0.8; stroke: #ffffff; stroke-linejoin: miter"/>
    </g>
    <g id="text_24">
     <!-- Test R² -->
     <g style="fill: #262626" transform="translate(565.825155 381.438025) scale(0.1 -0.1)">
      <use xlink:href="#DejaVuSans-54"/>
      <use xlink:href="#DejaVuSans-65" x="44.083984"/>
      <use xlink:href="#DejaVuSans-73" x="105.607422"/>
      <use xlink:href="#DejaVuSans-74" x="157.707031"/>
      <use xlink:href="#DejaVuSans-20" x="196.916016"/>
      <use xlink:href="#DejaVuSans-52" x="228.703125"/>
      <use xlink:href="#DejaVuSans-b2" x="298.185547"/>
     </g>
    </g>
   </g>
  </g>
  <g id="axes_2">
   <g id="patch_47">
    <path d="M 692.50422 392.517712 
L 1277.496875 392.517712 
L 1277.496875 24.179062 
L 692.50422 24.179062 
z
" style="fill: #f9f9f9"/>
   </g>
   <g id="matplotlib.axis_3">
    <g id="xtick_13">
     <g id="line2d_19">
      <path d="M 719.094795 392.517712 
L 719.094795 24.179062 
" clip-path="url(#pcfe73f79b2)" style="fill: none; stroke-dasharray: 2.59,1.12; stroke-dashoffset: 0; stroke: #eeeeee; stroke-opacity: 0.3; stroke-width: 0.7"/>
     </g>
     <g id="text_25">
      <!-- LinearRegression -->
      <g style="fill: #262626" transform="translate(656.97436 468.040494) rotate(-45) scale(0.1 -0.1)">
       <use xlink:href="#DejaVuSans-4c"/>
       <use xlink:href="#DejaVuSans-69" x="55.712891"/>
       <use xlink:href="#DejaVuSans-6e" x="83.496094"/>
       <use xlink:href="#DejaVuSans-65" x="146.875"/>
       <use xlink:href="#DejaVuSans-61" x="208.398438"/>
       <use xlink:href="#DejaVuSans-72" x="269.677734"/>
       <use xlink:href="#DejaVuSans-52" x="310.791016"/>
       <use xlink:href="#DejaVuSans-65" x="375.773438"/>
       <use xlink:href="#DejaVuSans-67" x="437.296875"/>
       <use xlink:href="#DejaVuSans-72" x="500.773438"/>
       <use xlink:href="#DejaVuSans-65" x="539.636719"/>
       <use xlink:href="#DejaVuSans-73" x="601.160156"/>
       <use xlink:href="#DejaVuSans-73" x="653.259766"/>
       <use xlink:href="#DejaVuSans-69" x="705.359375"/>
       <use xlink:href="#DejaVuSans-6f" x="733.142578"/>
       <use xlink:href="#DejaVuSans-6e" x="794.324219"/>
      </g>
     </g>
    </g>
    <g id="xtick_14">
     <g id="line2d_20">
      <path d="M 767.441296 392.517712 
L 767.441296 24.179062 
" clip-path="url(#pcfe73f79b2)" style="fill: none; stroke-dasharray: 2.59,1.12; stroke-dashoffset: 0; stroke: #eeeeee; stroke-opacity: 0.3; stroke-width: 0.7"/>
     </g>
     <g id="text_26">
      <!-- Ridge -->
      <g style="fill: #262626" transform="translate(745.764053 427.5973) rotate(-45) scale(0.1 -0.1)">
       <use xlink:href="#DejaVuSans-52"/>
       <use xlink:href="#DejaVuSans-69" x="69.482422"/>
       <use xlink:href="#DejaVuSans-64" x="97.265625"/>
       <use xlink:href="#DejaVuSans-67" x="160.742188"/>
       <use xlink:href="#DejaVuSans-65" x="224.21875"/>
      </g>
     </g>
    </g>
    <g id="xtick_15">
     <g id="line2d_21">
      <path d="M 815.787796 392.517712 
L 815.787796 24.179062 
" clip-path="url(#pcfe73f79b2)" style="fill: none; stroke-dasharray: 2.59,1.12; stroke-dashoffset: 0; stroke: #eeeeee; stroke-opacity: 0.3; stroke-width: 0.7"/>
     </g>
     <g id="text_27">
      <!-- Lasso -->
      <g style="fill: #262626" transform="translate(794.350307 427.357547) rotate(-45) scale(0.1 -0.1)">
       <use xlink:href="#DejaVuSans-4c"/>
       <use xlink:href="#DejaVuSans-61" x="55.712891"/>
       <use xlink:href="#DejaVuSans-73" x="116.992188"/>
       <use xlink:href="#DejaVuSans-73" x="169.091797"/>
       <use xlink:href="#DejaVuSans-6f" x="221.191406"/>
      </g>
     </g>
    </g>
    <g id="xtick_16">
     <g id="line2d_22">
      <path d="M 864.134296 392.517712 
L 864.134296 24.179062 
" clip-path="url(#pcfe73f79b2)" style="fill: none; stroke-dasharray: 2.59,1.12; stroke-dashoffset: 0; stroke: #eeeeee; stroke-opacity: 0.3; stroke-width: 0.7"/>
     </g>
     <g id="text_28">
      <!-- ElasticNet -->
      <g style="fill: #262626" transform="translate(827.176919 442.877436) rotate(-45) scale(0.1 -0.1)">
       <use xlink:href="#DejaVuSans-45"/>
       <use xlink:href="#DejaVuSans-6c" x="63.183594"/>
       <use xlink:href="#DejaVuSans-61" x="90.966797"/>
       <use xlink:href="#DejaVuSans-73" x="152.246094"/>
       <use xlink:href="#DejaVuSans-74" x="204.345703"/>
       <use xlink:href="#DejaVuSans-69" x="243.554688"/>
       <use xlink:href="#DejaVuSans-63" x="271.337891"/>
       <use xlink:href="#DejaVuSans-4e" x="326.318359"/>
       <use xlink:href="#DejaVuSans-65" x="401.123047"/>
       <use xlink:href="#DejaVuSans-74" x="462.646484"/>
      </g>
     </g>
    </g>
    <g id="xtick_17">
     <g id="line2d_23">
      <path d="M 912.480797 392.517712 
L 912.480797 24.179062 
" clip-path="url(#pcfe73f79b2)" style="fill: none; stroke-dasharray: 2.59,1.12; stroke-dashoffset: 0; stroke: #eeeeee; stroke-opacity: 0.3; stroke-width: 0.7"/>
     </g>
     <g id="text_29">
      <!-- DecisionTree -->
      <g style="fill: #262626" transform="translate(866.180771 452.220084) rotate(-45) scale(0.1 -0.1)">
       <use xlink:href="#DejaVuSans-44"/>
       <use xlink:href="#DejaVuSans-65" x="77.001953"/>
       <use xlink:href="#DejaVuSans-63" x="138.525391"/>
       <use xlink:href="#DejaVuSans-69" x="193.505859"/>
       <use xlink:href="#DejaVuSans-73" x="221.289062"/>
       <use xlink:href="#DejaVuSans-69" x="273.388672"/>
       <use xlink:href="#DejaVuSans-6f" x="301.171875"/>
       <use xlink:href="#DejaVuSans-6e" x="362.353516"/>
       <use xlink:href="#DejaVuSans-54" x="425.732422"/>
       <use xlink:href="#DejaVuSans-72" x="472.066406"/>
       <use xlink:href="#DejaVuSans-65" x="510.929688"/>
       <use xlink:href="#DejaVuSans-65" x="572.453125"/>
      </g>
     </g>
    </g>
    <g id="xtick_18">
     <g id="line2d_24">
      <path d="M 960.827297 392.517712 
L 960.827297 24.179062 
" clip-path="url(#pcfe73f79b2)" style="fill: none; stroke-dasharray: 2.59,1.12; stroke-dashoffset: 0; stroke: #eeeeee; stroke-opacity: 0.3; stroke-width: 0.7"/>
     </g>
     <g id="text_30">
      <!-- RandomForest -->
      <g style="fill: #262626" transform="translate(908.39312 458.354236) rotate(-45) scale(0.1 -0.1)">
       <use xlink:href="#DejaVuSans-52"/>
       <use xlink:href="#DejaVuSans-61" x="67.232422"/>
       <use xlink:href="#DejaVuSans-6e" x="128.511719"/>
       <use xlink:href="#DejaVuSans-64" x="191.890625"/>
       <use xlink:href="#DejaVuSans-6f" x="255.367188"/>
       <use xlink:href="#DejaVuSans-6d" x="316.548828"/>
       <use xlink:href="#DejaVuSans-46" x="413.960938"/>
       <use xlink:href="#DejaVuSans-6f" x="467.855469"/>
       <use xlink:href="#DejaVuSans-72" x="529.037109"/>
       <use xlink:href="#DejaVuSans-65" x="567.900391"/>
       <use xlink:href="#DejaVuSans-73" x="629.423828"/>
       <use xlink:href="#DejaVuSans-74" x="681.523438"/>
      </g>
     </g>
    </g>
    <g id="xtick_19">
     <g id="line2d_25">
      <path d="M 1009.173798 392.517712 
L 1009.173798 24.179062 
" clip-path="url(#pcfe73f79b2)" style="fill: none; stroke-dasharray: 2.59,1.12; stroke-dashoffset: 0; stroke: #eeeeee; stroke-opacity: 0.3; stroke-width: 0.7"/>
     </g>
     <g id="text_31">
      <!-- GradientBoosting -->
      <g style="fill: #262626" transform="translate(946.031372 469.062484) rotate(-45) scale(0.1 -0.1)">
       <use xlink:href="#DejaVuSans-47"/>
       <use xlink:href="#DejaVuSans-72" x="77.490234"/>
       <use xlink:href="#DejaVuSans-61" x="118.603516"/>
       <use xlink:href="#DejaVuSans-64" x="179.882812"/>
       <use xlink:href="#DejaVuSans-69" x="243.359375"/>
       <use xlink:href="#DejaVuSans-65" x="271.142578"/>
       <use xlink:href="#DejaVuSans-6e" x="332.666016"/>
       <use xlink:href="#DejaVuSans-74" x="396.044922"/>
       <use xlink:href="#DejaVuSans-42" x="435.253906"/>
       <use xlink:href="#DejaVuSans-6f" x="503.857422"/>
       <use xlink:href="#DejaVuSans-6f" x="565.039062"/>
       <use xlink:href="#DejaVuSans-73" x="626.220703"/>
       <use xlink:href="#DejaVuSans-74" x="678.320312"/>
       <use xlink:href="#DejaVuSans-69" x="717.529297"/>
       <use xlink:href="#DejaVuSans-6e" x="745.3125"/>
       <use xlink:href="#DejaVuSans-67" x="808.691406"/>
      </g>
     </g>
    </g>
    <g id="xtick_20">
     <g id="line2d_26">
      <path d="M 1057.520298 392.517712 
L 1057.520298 24.179062 
" clip-path="url(#pcfe73f79b2)" style="fill: none; stroke-dasharray: 2.59,1.12; stroke-dashoffset: 0; stroke: #eeeeee; stroke-opacity: 0.3; stroke-width: 0.7"/>
     </g>
     <g id="text_32">
      <!-- XGBoost -->
      <g style="fill: #262626" transform="translate(1025.766784 437.673572) rotate(-45) scale(0.1 -0.1)">
       <use xlink:href="#DejaVuSans-58"/>
       <use xlink:href="#DejaVuSans-47" x="68.505859"/>
       <use xlink:href="#DejaVuSans-42" x="145.996094"/>
       <use xlink:href="#DejaVuSans-6f" x="214.599609"/>
       <use xlink:href="#DejaVuSans-6f" x="275.78125"/>
       <use xlink:href="#DejaVuSans-73" x="336.962891"/>
       <use xlink:href="#DejaVuSans-74" x="389.0625"/>
      </g>
     </g>
    </g>
    <g id="xtick_21">
     <g id="line2d_27">
      <path d="M 1105.866798 392.517712 
L 1105.866798 24.179062 
" clip-path="url(#pcfe73f79b2)" style="fill: none; stroke-dasharray: 2.59,1.12; stroke-dashoffset: 0; stroke: #eeeeee; stroke-opacity: 0.3; stroke-width: 0.7"/>
     </g>
     <g id="text_33">
      <!-- LightGBM -->
      <g style="fill: #262626" transform="translate(1070.31811 441.468747) rotate(-45) scale(0.1 -0.1)">
       <use xlink:href="#DejaVuSans-4c"/>
       <use xlink:href="#DejaVuSans-69" x="55.712891"/>
       <use xlink:href="#DejaVuSans-67" x="83.496094"/>
       <use xlink:href="#DejaVuSans-68" x="146.972656"/>
       <use xlink:href="#DejaVuSans-74" x="210.351562"/>
       <use xlink:href="#DejaVuSans-47" x="249.560547"/>
       <use xlink:href="#DejaVuSans-42" x="327.050781"/>
       <use xlink:href="#DejaVuSans-4d" x="395.654297"/>
      </g>
     </g>
    </g>
    <g id="xtick_22">
     <g id="line2d_28">
      <path d="M 1154.213299 392.517712 
L 1154.213299 24.179062 
" clip-path="url(#pcfe73f79b2)" style="fill: none; stroke-dasharray: 2.59,1.12; stroke-dashoffset: 0; stroke: #eeeeee; stroke-opacity: 0.3; stroke-width: 0.7"/>
     </g>
     <g id="text_34">
      <!-- AdaBoost -->
      <g style="fill: #262626" transform="translate(1119.246869 440.886488) rotate(-45) scale(0.1 -0.1)">
       <use xlink:href="#DejaVuSans-41"/>
       <use xlink:href="#DejaVuSans-64" x="66.658203"/>
       <use xlink:href="#DejaVuSans-61" x="130.134766"/>
       <use xlink:href="#DejaVuSans-42" x="191.414062"/>
       <use xlink:href="#DejaVuSans-6f" x="260.017578"/>
       <use xlink:href="#DejaVuSans-6f" x="321.199219"/>
       <use xlink:href="#DejaVuSans-73" x="382.380859"/>
       <use xlink:href="#DejaVuSans-74" x="434.480469"/>
      </g>
     </g>
    </g>
    <g id="xtick_23">
     <g id="line2d_29">
      <path d="M 1202.559799 392.517712 
L 1202.559799 24.179062 
" clip-path="url(#pcfe73f79b2)" style="fill: none; stroke-dasharray: 2.59,1.12; stroke-dashoffset: 0; stroke: #eeeeee; stroke-opacity: 0.3; stroke-width: 0.7"/>
     </g>
     <g id="text_35">
      <!-- SVR -->
      <g style="fill: #262626" transform="translate(1186.849875 421.629982) rotate(-45) scale(0.1 -0.1)">
       <use xlink:href="#DejaVuSans-53"/>
       <use xlink:href="#DejaVuSans-56" x="63.476562"/>
       <use xlink:href="#DejaVuSans-52" x="131.884766"/>
      </g>
     </g>
    </g>
    <g id="xtick_24">
     <g id="line2d_30">
      <path d="M 1250.9063 392.517712 
L 1250.9063 24.179062 
" clip-path="url(#pcfe73f79b2)" style="fill: none; stroke-dasharray: 2.59,1.12; stroke-dashoffset: 0; stroke: #eeeeee; stroke-opacity: 0.3; stroke-width: 0.7"/>
     </g>
     <g id="text_36">
      <!-- KNN -->
      <g style="fill: #262626" transform="translate(1234.21858 422.607778) rotate(-45) scale(0.1 -0.1)">
       <use xlink:href="#DejaVuSans-4b"/>
       <use xlink:href="#DejaVuSans-4e" x="65.576172"/>
       <use xlink:href="#DejaVuSans-4e" x="140.380859"/>
      </g>
     </g>
    </g>
    <g id="text_37">
     <!-- Modeller -->
     <g style="fill: #262626" transform="translate(955.40086 483.65117) scale(0.12 -0.12)">
      <use xlink:href="#DejaVuSans-Bold-4d"/>
      <use xlink:href="#DejaVuSans-Bold-6f" x="99.511719"/>
      <use xlink:href="#DejaVuSans-Bold-64" x="168.212891"/>
      <use xlink:href="#DejaVuSans-Bold-65" x="239.794922"/>
      <use xlink:href="#DejaVuSans-Bold-6c" x="307.617188"/>
      <use xlink:href="#DejaVuSans-Bold-6c" x="341.894531"/>
      <use xlink:href="#DejaVuSans-Bold-65" x="376.171875"/>
      <use xlink:href="#DejaVuSans-Bold-72" x="443.994141"/>
     </g>
    </g>
   </g>
   <g id="matplotlib.axis_4">
    <g id="ytick_7">
     <g id="line2d_31">
      <path d="M 692.50422 392.517712 
L 1277.496875 392.517712 
" clip-path="url(#pcfe73f79b2)" style="fill: none; stroke-dasharray: 2.59,1.12; stroke-dashoffset: 0; stroke: #eeeeee; stroke-opacity: 0.3; stroke-width: 0.7"/>
     </g>
     <g id="text_38">
      <!-- 0.0 -->
      <g style="fill: #262626" transform="translate(667.101095 396.316931) scale(0.1 -0.1)">
       <use xlink:href="#DejaVuSans-30"/>
       <use xlink:href="#DejaVuSans-2e" x="63.623047"/>
       <use xlink:href="#DejaVuSans-30" x="95.410156"/>
      </g>
     </g>
    </g>
    <g id="ytick_8">
     <g id="line2d_32">
      <path d="M 692.50422 322.35797 
L 1277.496875 322.35797 
" clip-path="url(#pcfe73f79b2)" style="fill: none; stroke-dasharray: 2.59,1.12; stroke-dashoffset: 0; stroke: #eeeeee; stroke-opacity: 0.3; stroke-width: 0.7"/>
     </g>
     <g id="text_39">
      <!-- 0.2 -->
      <g style="fill: #262626" transform="translate(667.101095 326.157188) scale(0.1 -0.1)">
       <use xlink:href="#DejaVuSans-30"/>
       <use xlink:href="#DejaVuSans-2e" x="63.623047"/>
       <use xlink:href="#DejaVuSans-32" x="95.410156"/>
      </g>
     </g>
    </g>
    <g id="ytick_9">
     <g id="line2d_33">
      <path d="M 692.50422 252.198227 
L 1277.496875 252.198227 
" clip-path="url(#pcfe73f79b2)" style="fill: none; stroke-dasharray: 2.59,1.12; stroke-dashoffset: 0; stroke: #eeeeee; stroke-opacity: 0.3; stroke-width: 0.7"/>
     </g>
     <g id="text_40">
      <!-- 0.4 -->
      <g style="fill: #262626" transform="translate(667.101095 255.997446) scale(0.1 -0.1)">
       <use xlink:href="#DejaVuSans-30"/>
       <use xlink:href="#DejaVuSans-2e" x="63.623047"/>
       <use xlink:href="#DejaVuSans-34" x="95.410156"/>
      </g>
     </g>
    </g>
    <g id="ytick_10">
     <g id="line2d_34">
      <path d="M 692.50422 182.038484 
L 1277.496875 182.038484 
" clip-path="url(#pcfe73f79b2)" style="fill: none; stroke-dasharray: 2.59,1.12; stroke-dashoffset: 0; stroke: #eeeeee; stroke-opacity: 0.3; stroke-width: 0.7"/>
     </g>
     <g id="text_41">
      <!-- 0.6 -->
      <g style="fill: #262626" transform="translate(667.101095 185.837703) scale(0.1 -0.1)">
       <use xlink:href="#DejaVuSans-30"/>
       <use xlink:href="#DejaVuSans-2e" x="63.623047"/>
       <use xlink:href="#DejaVuSans-36" x="95.410156"/>
      </g>
     </g>
    </g>
    <g id="ytick_11">
     <g id="line2d_35">
      <path d="M 692.50422 111.878741 
L 1277.496875 111.878741 
" clip-path="url(#pcfe73f79b2)" style="fill: none; stroke-dasharray: 2.59,1.12; stroke-dashoffset: 0; stroke: #eeeeee; stroke-opacity: 0.3; stroke-width: 0.7"/>
     </g>
     <g id="text_42">
      <!-- 0.8 -->
      <g style="fill: #262626" transform="translate(667.101095 115.67796) scale(0.1 -0.1)">
       <use xlink:href="#DejaVuSans-30"/>
       <use xlink:href="#DejaVuSans-2e" x="63.623047"/>
       <use xlink:href="#DejaVuSans-38" x="95.410156"/>
      </g>
     </g>
    </g>
    <g id="ytick_12">
     <g id="line2d_36">
      <path d="M 692.50422 41.718998 
L 1277.496875 41.718998 
" clip-path="url(#pcfe73f79b2)" style="fill: none; stroke-dasharray: 2.59,1.12; stroke-dashoffset: 0; stroke: #eeeeee; stroke-opacity: 0.3; stroke-width: 0.7"/>
     </g>
     <g id="text_43">
      <!-- 1.0 -->
      <g style="fill: #262626" transform="translate(667.101095 45.518217) scale(0.1 -0.1)">
       <use xlink:href="#DejaVuSans-31"/>
       <use xlink:href="#DejaVuSans-2e" x="63.623047"/>
       <use xlink:href="#DejaVuSans-30" x="95.410156"/>
      </g>
     </g>
    </g>
    <g id="text_44">
     <!-- R² Skoru -->
     <g style="fill: #262626" transform="translate(660.60547 237.190575) rotate(-90) scale(0.12 -0.12)">
      <use xlink:href="#DejaVuSans-Bold-52"/>
      <use xlink:href="#DejaVuSans-Bold-b2" x="77.001953"/>
      <use xlink:href="#DejaVuSans-Bold-20" x="120.800781"/>
      <use xlink:href="#DejaVuSans-Bold-53" x="155.615234"/>
      <use xlink:href="#DejaVuSans-Bold-6b" x="227.636719"/>
      <use xlink:href="#DejaVuSans-Bold-6f" x="291.515625"/>
      <use xlink:href="#DejaVuSans-Bold-72" x="360.216797"/>
      <use xlink:href="#DejaVuSans-Bold-75" x="409.533203"/>
     </g>
    </g>
   </g>
   <g id="line2d_37">
    <path d="M 719.094795 157.170036 
L 767.441296 157.171329 
L 815.787796 157.170829 
L 864.134296 168.428175 
L 912.480797 113.583156 
L 960.827297 85.015709 
L 1009.173798 111.388365 
L 1057.520298 113.382285 
L 1105.866798 120.01215 
L 1154.213299 143.816993 
L 1202.559799 173.952073 
L 1250.9063 41.726297 
" clip-path="url(#pcfe73f79b2)" style="fill: none; stroke: #ff6b6b; stroke-width: 2.5; stroke-linecap: round"/>
    <defs>
     <path id="m3e98043579" d="M 0 4 
C 1.060812 4 2.078319 3.578535 2.828427 2.828427 
C 3.578535 2.078319 4 1.060812 4 0 
C 4 -1.060812 3.578535 -2.078319 2.828427 -2.828427 
C 2.078319 -3.578535 1.060812 -4 0 -4 
C -1.060812 -4 -2.078319 -3.578535 -2.828427 -2.828427 
C -3.578535 -2.078319 -4 -1.060812 -4 0 
C -4 1.060812 -3.578535 2.078319 -2.828427 2.828427 
C -2.078319 3.578535 -1.060812 4 0 4 
z
" style="stroke: #ff6b6b"/>
    </defs>
    <g clip-path="url(#pcfe73f79b2)">
     <use xlink:href="#m3e98043579" x="719.094795" y="157.170036" style="fill: #ff6b6b; stroke: #ff6b6b"/>
     <use xlink:href="#m3e98043579" x="767.441296" y="157.171329" style="fill: #ff6b6b; stroke: #ff6b6b"/>
     <use xlink:href="#m3e98043579" x="815.787796" y="157.170829" style="fill: #ff6b6b; stroke: #ff6b6b"/>
     <use xlink:href="#m3e98043579" x="864.134296" y="168.428175" style="fill: #ff6b6b; stroke: #ff6b6b"/>
     <use xlink:href="#m3e98043579" x="912.480797" y="113.583156" style="fill: #ff6b6b; stroke: #ff6b6b"/>
     <use xlink:href="#m3e98043579" x="960.827297" y="85.015709" style="fill: #ff6b6b; stroke: #ff6b6b"/>
     <use xlink:href="#m3e98043579" x="1009.173798" y="111.388365" style="fill: #ff6b6b; stroke: #ff6b6b"/>
     <use xlink:href="#m3e98043579" x="1057.520298" y="113.382285" style="fill: #ff6b6b; stroke: #ff6b6b"/>
     <use xlink:href="#m3e98043579" x="1105.866798" y="120.01215" style="fill: #ff6b6b; stroke: #ff6b6b"/>
     <use xlink:href="#m3e98043579" x="1154.213299" y="143.816993" style="fill: #ff6b6b; stroke: #ff6b6b"/>
     <use xlink:href="#m3e98043579" x="1202.559799" y="173.952073" style="fill: #ff6b6b; stroke: #ff6b6b"/>
     <use xlink:href="#m3e98043579" x="1250.9063" y="41.726297" style="fill: #ff6b6b; stroke: #ff6b6b"/>
    </g>
   </g>
   <g id="line2d_38">
    <path d="M 719.094795 157.833881 
L 767.441296 157.824287 
L 815.787796 157.833698 
L 864.134296 160.584361 
L 912.480797 149.674657 
L 960.827297 138.680162 
L 1009.173798 135.435108 
L 1057.520298 136.78031 
L 1105.866798 135.28282 
L 1154.213299 144.36627 
L 1202.559799 214.225568 
L 1250.9063 226.948243 
" clip-path="url(#pcfe73f79b2)" style="fill: none; stroke: #4ecdc4; stroke-width: 2.5; stroke-linecap: round"/>
    <defs>
     <path id="m65d45c4419" d="M -4 4 
L 4 4 
L 4 -4 
L -4 -4 
z
" style="stroke: #4ecdc4; stroke-linejoin: miter"/>
    </defs>
    <g clip-path="url(#pcfe73f79b2)">
     <use xlink:href="#m65d45c4419" x="719.094795" y="157.833881" style="fill: #4ecdc4; stroke: #4ecdc4; stroke-linejoin: miter"/>
     <use xlink:href="#m65d45c4419" x="767.441296" y="157.824287" style="fill: #4ecdc4; stroke: #4ecdc4; stroke-linejoin: miter"/>
     <use xlink:href="#m65d45c4419" x="815.787796" y="157.833698" style="fill: #4ecdc4; stroke: #4ecdc4; stroke-linejoin: miter"/>
     <use xlink:href="#m65d45c4419" x="864.134296" y="160.584361" style="fill: #4ecdc4; stroke: #4ecdc4; stroke-linejoin: miter"/>
     <use xlink:href="#m65d45c4419" x="912.480797" y="149.674657" style="fill: #4ecdc4; stroke: #4ecdc4; stroke-linejoin: miter"/>
     <use xlink:href="#m65d45c4419" x="960.827297" y="138.680162" style="fill: #4ecdc4; stroke: #4ecdc4; stroke-linejoin: miter"/>
     <use xlink:href="#m65d45c4419" x="1009.173798" y="135.435108" style="fill: #4ecdc4; stroke: #4ecdc4; stroke-linejoin: miter"/>
     <use xlink:href="#m65d45c4419" x="1057.520298" y="136.78031" style="fill: #4ecdc4; stroke: #4ecdc4; stroke-linejoin: miter"/>
     <use xlink:href="#m65d45c4419" x="1105.866798" y="135.28282" style="fill: #4ecdc4; stroke: #4ecdc4; stroke-linejoin: miter"/>
     <use xlink:href="#m65d45c4419" x="1154.213299" y="144.36627" style="fill: #4ecdc4; stroke: #4ecdc4; stroke-linejoin: miter"/>
     <use xlink:href="#m65d45c4419" x="1202.559799" y="214.225568" style="fill: #4ecdc4; stroke: #4ecdc4; stroke-linejoin: miter"/>
     <use xlink:href="#m65d45c4419" x="1250.9063" y="226.948243" style="fill: #4ecdc4; stroke: #4ecdc4; stroke-linejoin: miter"/>
    </g>
   </g>
   <g id="line2d_39">
    <path d="M 719.094795 162.420084 
L 767.441296 162.368689 
L 815.787796 162.380427 
L 864.134296 169.748224 
L 912.480797 154.579987 
L 960.827297 139.76562 
L 1009.173798 137.166709 
L 1057.520298 138.90248 
L 1105.866798 137.005503 
L 1154.213299 151.141192 
L 1202.559799 178.378686 
L 1250.9063 164.706906 
" clip-path="url(#pcfe73f79b2)" style="fill: none; stroke: #45b7d1; stroke-width: 2.5; stroke-linecap: round"/>
    <defs>
     <path id="mfc0e87d41f" d="M 0 -4 
L -4 4 
L 4 4 
z
" style="stroke: #45b7d1; stroke-linejoin: miter"/>
    </defs>
    <g clip-path="url(#pcfe73f79b2)">
     <use xlink:href="#mfc0e87d41f" x="719.094795" y="162.420084" style="fill: #45b7d1; stroke: #45b7d1; stroke-linejoin: miter"/>
     <use xlink:href="#mfc0e87d41f" x="767.441296" y="162.368689" style="fill: #45b7d1; stroke: #45b7d1; stroke-linejoin: miter"/>
     <use xlink:href="#mfc0e87d41f" x="815.787796" y="162.380427" style="fill: #45b7d1; stroke: #45b7d1; stroke-linejoin: miter"/>
     <use xlink:href="#mfc0e87d41f" x="864.134296" y="169.748224" style="fill: #45b7d1; stroke: #45b7d1; stroke-linejoin: miter"/>
     <use xlink:href="#mfc0e87d41f" x="912.480797" y="154.579987" style="fill: #45b7d1; stroke: #45b7d1; stroke-linejoin: miter"/>
     <use xlink:href="#mfc0e87d41f" x="960.827297" y="139.76562" style="fill: #45b7d1; stroke: #45b7d1; stroke-linejoin: miter"/>
     <use xlink:href="#mfc0e87d41f" x="1009.173798" y="137.166709" style="fill: #45b7d1; stroke: #45b7d1; stroke-linejoin: miter"/>
     <use xlink:href="#mfc0e87d41f" x="1057.520298" y="138.90248" style="fill: #45b7d1; stroke: #45b7d1; stroke-linejoin: miter"/>
     <use xlink:href="#mfc0e87d41f" x="1105.866798" y="137.005503" style="fill: #45b7d1; stroke: #45b7d1; stroke-linejoin: miter"/>
     <use xlink:href="#mfc0e87d41f" x="1154.213299" y="151.141192" style="fill: #45b7d1; stroke: #45b7d1; stroke-linejoin: miter"/>
     <use xlink:href="#mfc0e87d41f" x="1202.559799" y="178.378686" style="fill: #45b7d1; stroke: #45b7d1; stroke-linejoin: miter"/>
     <use xlink:href="#mfc0e87d41f" x="1250.9063" y="164.706906" style="fill: #45b7d1; stroke: #45b7d1; stroke-linejoin: miter"/>
    </g>
   </g>
   <g id="patch_48">
    <path d="M 692.50422 392.517712 
L 692.50422 24.179062 
" style="fill: none; stroke: #cccccc; stroke-width: 1.25; stroke-linejoin: miter; stroke-linecap: square"/>
   </g>
   <g id="patch_49">
    <path d="M 1277.496875 392.517712 
L 1277.496875 24.179062 
" style="fill: none; stroke: #cccccc; stroke-width: 1.25; stroke-linejoin: miter; stroke-linecap: square"/>
   </g>
   <g id="patch_50">
    <path d="M 692.50422 392.517712 
L 1277.496875 392.517712 
" style="fill: none; stroke: #cccccc; stroke-width: 1.25; stroke-linejoin: miter; stroke-linecap: square"/>
   </g>
   <g id="patch_51">
    <path d="M 692.50422 24.179062 
L 1277.496875 24.179062 
" style="fill: none; stroke: #cccccc; stroke-width: 1.25; stroke-linejoin: miter; stroke-linecap: square"/>
   </g>
   <g id="text_45">
    <!-- Modellerin Eğitim vs Test Performans Trendi -->
    <g style="fill: #262626" transform="translate(810.429297 18.179062) scale(0.14 -0.14)">
     <defs>
      <path id="DejaVuSans-Bold-45" d="M 588 4666 
L 3834 4666 
L 3834 3756 
L 1791 3756 
L 1791 2888 
L 3713 2888 
L 3713 1978 
L 1791 1978 
L 1791 909 
L 3903 909 
L 3903 0 
L 588 0 
L 588 4666 
z
" transform="scale(0.015625)"/>
      <path id="DejaVuSans-Bold-11f" d="M 2919 594 
Q 2688 288 2409 144 
Q 2131 0 1766 0 
Q 1125 0 706 504 
Q 288 1009 288 1791 
Q 288 2575 706 3076 
Q 1125 3578 1766 3578 
Q 2131 3578 2409 3434 
Q 2688 3291 2919 2981 
L 2919 3500 
L 4044 3500 
L 4044 353 
Q 4044 -491 3511 -936 
Q 2978 -1381 1966 -1381 
Q 1638 -1381 1331 -1331 
Q 1025 -1281 716 -1178 
L 716 -306 
Q 1009 -475 1290 -558 
Q 1572 -641 1856 -641 
Q 2406 -641 2662 -400 
Q 2919 -159 2919 353 
L 2919 594 
z
M 2181 2772 
Q 1834 2772 1640 2515 
Q 1447 2259 1447 1791 
Q 1447 1309 1634 1061 
Q 1822 813 2181 813 
Q 2531 813 2725 1069 
Q 2919 1325 2919 1791 
Q 2919 2259 2725 2515 
Q 2531 2772 2181 2772 
z
M 1241 5019 
L 1688 5019 
Q 1722 4800 1876 4684 
Q 2031 4569 2291 4569 
Q 2550 4569 2704 4684 
Q 2859 4800 2894 5019 
L 3341 5019 
Q 3322 4569 3050 4330 
Q 2778 4091 2291 4091 
Q 1803 4091 1531 4330 
Q 1259 4569 1241 5019 
z
" transform="scale(0.015625)"/>
      <path id="DejaVuSans-Bold-50" d="M 588 4666 
L 2584 4666 
Q 3475 4666 3951 4270 
Q 4428 3875 4428 3144 
Q 4428 2409 3951 2014 
Q 3475 1619 2584 1619 
L 1791 1619 
L 1791 0 
L 588 0 
L 588 4666 
z
M 1791 3794 
L 1791 2491 
L 2456 2491 
Q 2806 2491 2997 2661 
Q 3188 2831 3188 3144 
Q 3188 3456 2997 3625 
Q 2806 3794 2456 3794 
L 1791 3794 
z
" transform="scale(0.015625)"/>
      <path id="DejaVuSans-Bold-66" d="M 2841 4863 
L 2841 4128 
L 2222 4128 
Q 1984 4128 1890 4042 
Q 1797 3956 1797 3744 
L 1797 3500 
L 2753 3500 
L 2753 2700 
L 1797 2700 
L 1797 0 
L 678 0 
L 678 2700 
L 122 2700 
L 122 3500 
L 678 3500 
L 678 3744 
Q 678 4316 997 4589 
Q 1316 4863 1984 4863 
L 2841 4863 
z
" transform="scale(0.015625)"/>
     </defs>
     <use xlink:href="#DejaVuSans-Bold-4d"/>
     <use xlink:href="#DejaVuSans-Bold-6f" x="99.511719"/>
     <use xlink:href="#DejaVuSans-Bold-64" x="168.212891"/>
     <use xlink:href="#DejaVuSans-Bold-65" x="239.794922"/>
     <use xlink:href="#DejaVuSans-Bold-6c" x="307.617188"/>
     <use xlink:href="#DejaVuSans-Bold-6c" x="341.894531"/>
     <use xlink:href="#DejaVuSans-Bold-65" x="376.171875"/>
     <use xlink:href="#DejaVuSans-Bold-72" x="443.994141"/>
     <use xlink:href="#DejaVuSans-Bold-69" x="493.310547"/>
     <use xlink:href="#DejaVuSans-Bold-6e" x="527.587891"/>
     <use xlink:href="#DejaVuSans-Bold-20" x="598.779297"/>
     <use xlink:href="#DejaVuSans-Bold-45" x="633.59375"/>
     <use xlink:href="#DejaVuSans-Bold-11f" x="701.904297"/>
     <use xlink:href="#DejaVuSans-Bold-69" x="773.486328"/>
     <use xlink:href="#DejaVuSans-Bold-74" x="807.763672"/>
     <use xlink:href="#DejaVuSans-Bold-69" x="855.566406"/>
     <use xlink:href="#DejaVuSans-Bold-6d" x="889.84375"/>
     <use xlink:href="#DejaVuSans-Bold-20" x="994.042969"/>
     <use xlink:href="#DejaVuSans-Bold-76" x="1028.857422"/>
     <use xlink:href="#DejaVuSans-Bold-73" x="1094.042969"/>
     <use xlink:href="#DejaVuSans-Bold-20" x="1153.564453"/>
     <use xlink:href="#DejaVuSans-Bold-54" x="1188.378906"/>
     <use xlink:href="#DejaVuSans-Bold-65" x="1243.341797"/>
     <use xlink:href="#DejaVuSans-Bold-73" x="1311.164062"/>
     <use xlink:href="#DejaVuSans-Bold-74" x="1370.685547"/>
     <use xlink:href="#DejaVuSans-Bold-20" x="1418.488281"/>
     <use xlink:href="#DejaVuSans-Bold-50" x="1453.302734"/>
     <use xlink:href="#DejaVuSans-Bold-65" x="1526.59375"/>
     <use xlink:href="#DejaVuSans-Bold-72" x="1594.416016"/>
     <use xlink:href="#DejaVuSans-Bold-66" x="1643.732422"/>
     <use xlink:href="#DejaVuSans-Bold-6f" x="1687.238281"/>
     <use xlink:href="#DejaVuSans-Bold-72" x="1755.939453"/>
     <use xlink:href="#DejaVuSans-Bold-6d" x="1805.255859"/>
     <use xlink:href="#DejaVuSans-Bold-61" x="1909.455078"/>
     <use xlink:href="#DejaVuSans-Bold-6e" x="1976.935547"/>
     <use xlink:href="#DejaVuSans-Bold-73" x="2048.126953"/>
     <use xlink:href="#DejaVuSans-Bold-20" x="2107.648438"/>
     <use xlink:href="#DejaVuSans-Bold-54" x="2142.462891"/>
     <use xlink:href="#DejaVuSans-Bold-72" x="2199.675781"/>
     <use xlink:href="#DejaVuSans-Bold-65" x="2248.992188"/>
     <use xlink:href="#DejaVuSans-Bold-6e" x="2316.814453"/>
     <use xlink:href="#DejaVuSans-Bold-64" x="2388.005859"/>
     <use xlink:href="#DejaVuSans-Bold-69" x="2459.587891"/>
    </g>
   </g>
   <g id="legend_2">
    <g id="patch_52">
     <path d="M 1180.1125 387.517712 
L 1270.496875 387.517712 
Q 1272.496875 387.517712 1272.496875 385.517712 
L 1272.496875 342.483337 
Q 1272.496875 340.483337 1270.496875 340.483337 
L 1180.1125 340.483337 
Q 1178.1125 340.483337 1178.1125 342.483337 
L 1178.1125 385.517712 
Q 1178.1125 387.517712 1180.1125 387.517712 
z
" style="fill: #f9f9f9; opacity: 0.8; stroke: #cccccc; stroke-linejoin: miter"/>
    </g>
    <g id="line2d_40">
     <path d="M 1182.1125 348.581775 
L 1192.1125 348.581775 
L 1202.1125 348.581775 
" style="fill: none; stroke: #ff6b6b; stroke-width: 2.5; stroke-linecap: round"/>
     <g>
      <use xlink:href="#m3e98043579" x="1192.1125" y="348.581775" style="fill: #ff6b6b; stroke: #ff6b6b"/>
     </g>
    </g>
    <g id="text_46">
     <!-- Train R² -->
     <g style="fill: #262626" transform="translate(1210.1125 352.081775) scale(0.1 -0.1)">
      <use xlink:href="#DejaVuSans-54"/>
      <use xlink:href="#DejaVuSans-72" x="46.333984"/>
      <use xlink:href="#DejaVuSans-61" x="87.447266"/>
      <use xlink:href="#DejaVuSans-69" x="148.726562"/>
      <use xlink:href="#DejaVuSans-6e" x="176.509766"/>
      <use xlink:href="#DejaVuSans-20" x="239.888672"/>
      <use xlink:href="#DejaVuSans-52" x="271.675781"/>
      <use xlink:href="#DejaVuSans-b2" x="341.158203"/>
     </g>
    </g>
    <g id="line2d_41">
     <path d="M 1182.1125 363.2599 
L 1192.1125 363.2599 
L 1202.1125 363.2599 
" style="fill: none; stroke: #4ecdc4; stroke-width: 2.5; stroke-linecap: round"/>
     <g>
      <use xlink:href="#m65d45c4419" x="1192.1125" y="363.2599" style="fill: #4ecdc4; stroke: #4ecdc4; stroke-linejoin: miter"/>
     </g>
    </g>
    <g id="text_47">
     <!-- CV Mean R² -->
     <g style="fill: #262626" transform="translate(1210.1125 366.7599) scale(0.1 -0.1)">
      <use xlink:href="#DejaVuSans-43"/>
      <use xlink:href="#DejaVuSans-56" x="69.824219"/>
      <use xlink:href="#DejaVuSans-20" x="138.232422"/>
      <use xlink:href="#DejaVuSans-4d" x="170.019531"/>
      <use xlink:href="#DejaVuSans-65" x="256.298828"/>
      <use xlink:href="#DejaVuSans-61" x="317.822266"/>
      <use xlink:href="#DejaVuSans-6e" x="379.101562"/>
      <use xlink:href="#DejaVuSans-20" x="442.480469"/>
      <use xlink:href="#DejaVuSans-52" x="474.267578"/>
      <use xlink:href="#DejaVuSans-b2" x="543.75"/>
     </g>
    </g>
    <g id="line2d_42">
     <path d="M 1182.1125 377.938025 
L 1192.1125 377.938025 
L 1202.1125 377.938025 
" style="fill: none; stroke: #45b7d1; stroke-width: 2.5; stroke-linecap: round"/>
     <g>
      <use xlink:href="#mfc0e87d41f" x="1192.1125" y="377.938025" style="fill: #45b7d1; stroke: #45b7d1; stroke-linejoin: miter"/>
     </g>
    </g>
    <g id="text_48">
     <!-- Test R² -->
     <g style="fill: #262626" transform="translate(1210.1125 381.438025) scale(0.1 -0.1)">
      <use xlink:href="#DejaVuSans-54"/>
      <use xlink:href="#DejaVuSans-65" x="44.083984"/>
      <use xlink:href="#DejaVuSans-73" x="105.607422"/>
      <use xlink:href="#DejaVuSans-74" x="157.707031"/>
      <use xlink:href="#DejaVuSans-20" x="196.916016"/>
      <use xlink:href="#DejaVuSans-52" x="228.703125"/>
      <use xlink:href="#DejaVuSans-b2" x="298.185547"/>
     </g>
    </g>
   </g>
  </g>
 </g>
 <defs>
  <clipPath id="p1c086cfe16">
   <rect x="48.216875" y="24.179062" width="584.992655" height="368.33865"/>
  </clipPath>
  <clipPath id="pcfe73f79b2">
   <rect x="692.50422" y="24.179062" width="584.992655" height="368.33865"/>
  </clipPath>
 </defs>
</svg>
